<svg width="717" height="552" viewBox="0 0 717 552" fill="none" xmlns="http://www.w3.org/2000/svg">
<path d="M374.5 300.5L310 236C310 303.157 268.365 360.589 209.5 383.893" stroke="#D57A94" stroke-width="60" stroke-linecap="round" stroke-linejoin="round"/>
<path d="M375 300.5L439.5 236C439.5 303.157 481.135 360.589 540 383.893" stroke="#D57A94" stroke-width="60" stroke-linecap="round" stroke-linejoin="round"/>
<path d="M378.404 522C328.367 522 283.641 499.342 254 463.762" stroke="#BA224D" stroke-width="60" stroke-linecap="round"/>
<path d="M378 522C428.037 522 472.762 499.342 502.404 463.762" stroke="#BA224D" stroke-width="60" stroke-linecap="round"/>
<path d="M375 30C326.725 30 285.1 58.6603 266 100" stroke="#BA224D" stroke-width="60" stroke-linecap="round"/>
<path d="M378 30C426.275 30 467.9 58.6603 487 100" stroke="#BA224D" stroke-width="60" stroke-linecap="round"/>
<path d="M129 311C74.3238 311 30 266.676 30 212C30 186.644 39.5322 163.515 55.2085 146" stroke="#D57A94" stroke-width="60" stroke-linecap="round"/>
<path d="M129 311C183.676 311 228 266.676 228 212C228 186.644 218.468 163.515 202.792 146" stroke="#D57A94" stroke-width="60" stroke-linecap="round"/>
<path d="M522 212C522 157.324 566.324 113 621 113C646.356 113 669.485 122.532 687 138.208" stroke="#D57A94" stroke-width="60" stroke-linecap="round"/>
<path d="M522 212C522 266.676 566.324 311 621 311C646.356 311 669.485 301.468 687 285.792" stroke="#D57A94" stroke-width="60" stroke-linecap="round"/>
</svg>
