<svg width="27" height="24" viewBox="0 0 27 24" fill="none" xmlns="http://www.w3.org/2000/svg">
<g clip-path="url(#clip0_538_1634)">
<path d="M13.4873 14.4043C14.8151 14.4043 15.8916 13.3278 15.8916 12C15.8916 10.6721 14.8151 9.5957 13.4873 9.5957C12.1594 9.5957 11.083 10.6721 11.083 12C11.083 13.3278 12.1594 14.4043 13.4873 14.4043Z" fill="#61DAFB"/>
<path d="M13.487 16.9259C20.612 16.9259 26.388 14.7205 26.388 12.0001C26.388 9.2796 20.612 7.07422 13.487 7.07422C6.36193 7.07422 0.585938 9.2796 0.585938 12.0001C0.585938 14.7205 6.36193 16.9259 13.487 16.9259Z" stroke="#61DAFB" stroke-width="1.17282"/>
<path d="M9.22094 14.4627C12.7835 20.6332 17.5814 24.5327 19.9374 23.1724C22.2934 21.8122 21.3153 15.7073 17.7528 9.53688C14.1902 3.36641 9.39233 -0.533054 7.03634 0.827182C4.68034 2.18742 5.65842 8.29226 9.22094 14.4627Z" stroke="#61DAFB" stroke-width="1.17282"/>
<path d="M9.22079 9.53681C5.65827 15.7073 4.68019 21.8121 7.03618 23.1724C9.39218 24.5326 14.1901 20.6331 17.7526 14.4627C21.3151 8.29219 22.2932 2.18735 19.9372 0.827115C17.5812 -0.533121 12.7833 3.36634 9.22079 9.53681Z" stroke="#61DAFB" stroke-width="1.17282"/>
</g>
<defs>
<clipPath id="clip0_538_1634">
<rect width="26.9749" height="24" fill="white"/>
</clipPath>
</defs>
</svg>
