<svg width="24" height="24" viewBox="0 0 24 24" fill="none" xmlns="http://www.w3.org/2000/svg">
<g clip-path="url(#clip0_538_1631)">
<path d="M23.9892 11.796C24.0306 9.23936 23.4546 6.19916 22.2546 2.63216L21.3138 -0.165039L20.0358 2.49476C19.9674 2.63696 19.8894 2.77616 19.8078 2.91356C17.7084 1.11116 14.9844 0.0149609 12 0.0149609C5.3724 0.0149609 0 5.38736 0 12.015C0 18.6426 5.3724 24.015 12 24.015C18.6276 24.015 24 18.6426 24 12.015C24 11.9412 23.9904 11.8698 23.9892 11.796Z" fill="#8BC34A"/>
<path d="M21.2314 17.1494C19.3576 19.7306 16.0408 19.8692 12.919 19.8146H8.85038H7.68758C10.3444 18.8588 11.9254 18.6314 13.54 17.7746C16.5808 16.1756 19.5868 12.677 20.2126 9.03745C19.0546 12.539 15.5452 15.5474 12.3472 16.7708C10.156 17.6066 6.19838 18.4178 6.19838 18.4178L6.03818 18.3308C3.34418 16.9754 3.26258 10.943 8.16038 8.99545C10.3048 8.14165 12.3562 8.61085 14.6728 8.03965C17.146 7.43245 20.0068 5.51485 21.1708 3.01465C22.474 7.01485 24.0424 13.2782 21.2314 17.1494ZM7.00118 20.6816C6.83198 20.8916 6.57338 21.0146 6.30338 21.0146C5.80958 21.0146 5.40638 20.6084 5.40638 20.1146C5.40638 19.6208 5.81258 19.2146 6.30338 19.2146C6.50798 19.2146 6.70958 19.2854 6.86798 19.4162C7.25198 19.7276 7.31198 20.2976 7.00118 20.6816Z" fill="white"/>
</g>
<defs>
<clipPath id="clip0_538_1631">
<rect width="24" height="24" fill="white"/>
</clipPath>
</defs>
</svg>
