<svg width="918" height="222" viewBox="0 0 918 222" fill="none" xmlns="http://www.w3.org/2000/svg">
<path d="M361.387 23.5781H371.406V50.9414C371.406 60.4336 364.199 66.5859 353.535 66.5859C342.812 66.5859 335.664 60.4336 335.664 50.9414V23.5781H345.625V50.1211C345.625 54.6328 348.848 57.8555 353.535 57.8555C358.223 57.8555 361.387 54.6328 361.387 50.1211V23.5781ZM377.852 23.5781H390.215L401.172 50.2969H401.641L412.598 23.5781H424.961V66H415.234V39.6328H414.883L404.57 65.7656H398.242L387.93 39.5156H387.578V66H377.852V23.5781ZM459.59 38.8711C459.004 34.5352 455.898 31.7812 451.152 31.7812C444.883 31.7812 441.074 36.5273 441.074 44.7891C441.074 53.3438 445 57.7969 451.094 57.7969C455.664 57.7969 458.828 55.3359 459.59 51.1758L469.668 51.2344C468.848 58.793 462.402 66.5859 450.918 66.5859C439.434 66.5859 430.879 58.7344 430.879 44.7891C430.879 30.7852 439.609 22.9922 450.918 22.9922C461.113 22.9922 468.613 28.7344 469.668 38.8711H459.59ZM516.484 17.8945V33.0117H523.516V40.043H516.484V57.5039H508.047V17.8945H516.484ZM518.359 64.0078V70.7461H481.328V54.2812H489.941V64.0078H518.359ZM500.254 21.0586V38.4609H483.906V43.207C492.49 43.1777 498.232 42.7676 504.59 41.625L505.469 48.3633C498.145 49.7695 491.289 49.9453 480.098 49.9453H475.469V32.1328H491.992V27.7969H475.41V21.0586H500.254ZM535.176 52.2305C535.176 45.1406 536.992 42.9727 540.332 40.8633C542.91 39.2227 544.902 37.582 544.902 35.0039C544.902 32.4258 542.852 30.7852 540.332 30.7852C537.871 30.7852 535.586 32.543 535.527 35.4727H526.211C526.328 26.8594 532.715 22.9922 540.391 22.9922C548.887 22.9922 555.039 27.0938 555.039 34.5352C555.039 39.457 552.402 42.5039 548.477 44.8477C545.312 46.7227 543.789 48.4805 543.789 52.2305V53.0508H535.176V52.2305ZM539.629 66.5859C536.699 66.5859 534.297 64.2422 534.355 61.2539C534.297 58.3828 536.699 56.0391 539.629 56.0391C542.441 56.0391 544.902 58.3828 544.961 61.2539C544.902 64.2422 542.441 66.5859 539.629 66.5859Z" fill="white"/>
<g filter="url(#filter0_di_643_1723)">
<path d="M196.34 125.348V157.129H192.613V140.922H189.027V155.512H185.441V125.945H189.027V137.793H192.613V125.348H196.34ZM181.855 129.109V132.273H173.91V146.406C177.373 146.371 180.221 146.195 183.438 145.598L183.719 148.797C179.887 149.57 176.547 149.676 172.117 149.711H169.973V129.109H181.855ZM218.98 128.406V131.5H200.137V128.406H207.625V125.207H211.527V128.406H218.98ZM209.559 132.73C214.164 132.73 217.293 135.051 217.328 138.531C217.293 142.012 214.164 144.332 209.559 144.332C204.953 144.332 201.754 142.012 201.754 138.531C201.754 135.051 204.953 132.73 209.559 132.73ZM209.559 135.684C207.133 135.684 205.551 136.738 205.551 138.531C205.551 140.324 207.133 141.344 209.559 141.309C211.984 141.344 213.602 140.324 213.602 138.531C213.602 136.738 211.984 135.684 209.559 135.684ZM225.168 125.348V133.785H229.598V136.984H225.168V145.246H221.266V125.348H225.168ZM225.168 146.723V157.129H221.266V149.852H204.004V146.723H225.168ZM241.129 131.254C241.129 134.699 243.133 138.145 247.316 139.727L245.242 142.715C242.412 141.625 240.443 139.604 239.301 137.125C238.141 139.973 236.066 142.398 233.043 143.664L230.934 140.676C235.293 138.742 237.332 134.77 237.367 131.254V127.316H241.129V131.254ZM258.391 125.383V144.859H254.664V136.598H251.5V143.875H247.844V125.98H251.5V133.398H254.664V125.383H258.391ZM247.668 145.387C254.312 145.387 258.531 147.566 258.566 151.223C258.531 154.879 254.312 157.094 247.668 157.094C240.953 157.094 236.77 154.879 236.77 151.223C236.77 147.566 240.953 145.387 247.668 145.387ZM247.668 148.34C243.273 148.34 240.672 149.359 240.672 151.223C240.672 153.121 243.273 154.105 247.668 154.105C252.027 154.105 254.629 153.121 254.629 151.223C254.629 149.359 252.027 148.34 247.668 148.34ZM276.742 128.547V154H272.172V128.547H276.742ZM280.363 132.379V128.547H300.648V132.379H292.809V154H288.238V132.379H280.363ZM338.09 125.383V148.691H334.188V140.816H326.629C325.1 142.521 322.85 143.559 320.301 143.559C315.52 143.559 311.898 140.113 311.898 135.438C311.898 130.691 315.52 127.281 320.301 127.281C322.832 127.281 325.064 128.301 326.594 129.988H334.188V125.383H338.09ZM338.898 153.332V156.496H317.242V146.301H321.145V153.332H338.898ZM320.301 130.762C317.559 130.762 315.625 132.59 315.625 135.438C315.625 138.25 317.559 140.078 320.301 140.078C322.902 140.078 324.871 138.25 324.906 135.438C324.871 132.59 322.902 130.762 320.301 130.762ZM328.316 133.152C328.51 133.873 328.633 134.629 328.633 135.438C328.633 136.211 328.527 136.949 328.352 137.652H334.188V133.152H328.316ZM367.656 125.348V133.188H372.086V136.422H367.656V143.91H363.754V125.348H367.656ZM350.992 145.176V147.918H363.754V145.176H367.656V156.742H347.125V145.176H350.992ZM350.992 153.648H363.754V150.941H350.992V153.648ZM361.469 128.301V131.43H342.625V128.301H350.113V125.102H354.016V128.301H361.469ZM352.047 132.52C356.652 132.52 359.781 134.734 359.816 138.109C359.781 141.484 356.652 143.699 352.047 143.699C347.406 143.699 344.242 141.484 344.242 138.109C344.242 134.734 347.406 132.52 352.047 132.52ZM352.047 135.402C349.621 135.402 348.039 136.422 348.039 138.109C348.039 139.832 349.621 140.816 352.047 140.816C354.473 140.816 356.09 139.832 356.09 138.109C356.09 136.422 354.473 135.402 352.047 135.402ZM393.602 132.977C393.566 138.637 396.414 144.402 401.336 146.758L398.945 149.887C395.5 148.146 393.021 144.789 391.668 140.746C390.279 145.07 387.678 148.656 384.039 150.484L381.648 147.355C386.746 144.93 389.664 138.848 389.699 132.977V127.914H393.602V132.977ZM407.137 125.348V137.793H412.023V141.133H407.137V157.129H403.234V125.348H407.137ZM439.797 125.348V157.164H435.859V125.348H439.797ZM422.676 127.668C427.457 127.668 430.938 132.027 430.973 138.883C430.938 145.809 427.457 150.133 422.676 150.133C417.859 150.133 414.379 145.809 414.379 138.883C414.379 132.027 417.859 127.668 422.676 127.668ZM422.676 131.184C419.969 131.184 418.141 134.031 418.141 138.883C418.141 143.77 419.969 146.617 422.676 146.617C425.348 146.617 427.176 143.77 427.176 138.883C427.176 134.031 425.348 131.184 422.676 131.184ZM470.277 140.254V143.383H447.988V128.125H470.031V131.289H451.855V140.254H470.277ZM473.512 149.852V153.086H444.473V149.852H473.512ZM513.168 150.027V153.297H484.129V150.027H513.168ZM510.637 128.301V131.43H505.996V141.555H510.531V144.648H486.625V141.555H491.09V131.43H486.52V128.301H510.637ZM494.992 141.555H502.129V131.43H494.992V141.555ZM544.281 150.203V153.438H515.242V150.203H527.758V145.035H518.688V134.629H536.969V130.691H518.617V127.527H540.836V137.723H522.59V141.836H541.574V145.035H531.625V150.203H544.281ZM567.273 126.016V144.508H563.547V136.492H559.574V133.328H563.547V126.016H567.273ZM556.164 132.168C556.164 135.578 558.062 139.023 562.105 140.641L560.137 143.629C557.324 142.539 555.426 140.5 554.336 138.039C553.176 140.799 551.154 143.066 548.148 144.297L546.109 141.238C550.363 139.551 552.367 135.789 552.367 132.168V130.902H547.023V127.773H561.191V130.902H556.164V132.168ZM573.531 125.348V144.719H569.805V125.348H573.531ZM573.531 145.984V157.129H569.629V149.113H551.77V145.984H573.531ZM603.309 142.012V145.105H581.02V127.844H603.027V131.008H584.992V134.84H602.289V137.898H584.992V142.012H603.309ZM606.508 150.062V153.262H577.469V150.062H606.508ZM646.129 140.57V143.699H617.125V140.57H629.711V137.547H620.676V126.789H642.613V129.848H624.578V134.453H642.789V137.547H633.543V140.57H646.129ZM631.574 145.527C638.43 145.527 642.543 147.602 642.578 151.328C642.543 155.02 638.43 157.129 631.574 157.129C624.648 157.129 620.5 155.02 620.5 151.328C620.5 147.602 624.648 145.527 631.574 145.527ZM631.574 148.516C626.934 148.516 624.438 149.5 624.473 151.328C624.438 153.156 626.934 154.105 631.574 154.105C636.109 154.105 638.641 153.156 638.676 151.328C638.641 149.5 636.109 148.516 631.574 148.516ZM656.781 127.668C661.562 127.668 665.008 132.027 665.043 138.883C665.008 145.809 661.562 150.133 656.781 150.133C651.965 150.133 648.484 145.809 648.52 138.883C648.484 132.027 651.965 127.668 656.781 127.668ZM656.781 131.184C654.109 131.184 652.281 134.031 652.281 138.883C652.281 143.77 654.109 146.617 656.781 146.617C659.488 146.617 661.281 143.77 661.281 138.883C661.281 134.031 659.488 131.184 656.781 131.184ZM673.129 125.348V137.547H678.016V140.852H673.129V157.129H669.227V125.348H673.129ZM705.824 125.348V157.164H701.957V125.348H705.824ZM696.051 128.125V140.043H685.117V146.441C690.127 146.406 694.451 146.16 699.391 145.316L699.742 148.516C694.328 149.465 689.582 149.641 683.887 149.641H681.109V136.949H692.078V131.289H681.074V128.125H696.051ZM739.504 150.203V153.438H710.465V150.203H722.98V145.035H713.91V134.629H732.191V130.691H713.84V127.527H736.059V137.723H717.812V141.836H736.797V145.035H726.848V150.203H739.504ZM37.4863 194.57V197.699H8.48242V194.57H21.0684V191.547H12.0332V180.789H33.9707V183.848H15.9355V188.453H34.1465V191.547H24.9004V194.57H37.4863ZM22.9316 199.527C29.7871 199.527 33.9004 201.602 33.9355 205.328C33.9004 209.02 29.7871 211.129 22.9316 211.129C16.0059 211.129 11.8574 209.02 11.8574 205.328C11.8574 201.602 16.0059 199.527 22.9316 199.527ZM22.9316 202.516C18.291 202.516 15.7949 203.5 15.8301 205.328C15.7949 207.156 18.291 208.105 22.9316 208.105C27.4668 208.105 29.998 207.156 30.0332 205.328C29.998 203.5 27.4668 202.516 22.9316 202.516ZM55.8027 181.492V184.691H45.2207V194.113C50.6348 194.096 53.7812 193.902 57.3145 193.164L57.7012 196.293C53.7285 197.172 50.2832 197.277 43.7793 197.277H41.3184V181.492H55.8027ZM66.209 199.914V211.129H62.3066V203.043H44.5527V199.914H66.209ZM66.209 179.348V198.473H62.3066V190.562H54.1504V187.398H62.3066V179.348H66.209ZM79.3926 181.668C82.2754 181.668 84.6484 183.268 86.0723 186.062H93.4902V179.348H97.3574V211.164H93.4902V199.141H86.3535C84.9824 202.305 82.4688 204.133 79.3926 204.133C74.6113 204.133 71.2363 199.809 71.2363 192.883C71.2363 186.027 74.6113 181.668 79.3926 181.668ZM79.3926 185.184C76.7559 185.184 74.9629 188.031 74.998 192.883C74.9629 197.77 76.7559 200.617 79.3926 200.617C82.0293 200.617 83.7871 197.77 83.8223 192.883C83.7871 188.031 82.0293 185.184 79.3926 185.184ZM87.1621 189.262C87.3906 190.369 87.5137 191.582 87.5137 192.883C87.5137 193.99 87.4258 195.01 87.2676 195.977H93.4902V189.262H87.1621ZM129.174 179.348V211.129H125.447V194.922H121.861V209.512H118.275V179.945H121.861V191.793H125.447V179.348H129.174ZM114.689 183.109V186.273H106.744V200.406C110.207 200.371 113.055 200.195 116.271 199.598L116.553 202.797C112.721 203.57 109.381 203.676 104.951 203.711H102.807V183.109H114.689ZM158.846 182.547H163.451V199.176C163.451 204.625 159.303 208.387 153.115 208.387C146.893 208.387 142.779 204.625 142.779 199.176V182.547H147.35V198.789C147.35 201.988 149.6 204.309 153.115 204.309C156.631 204.309 158.846 201.988 158.846 198.789V182.547ZM168.162 182.547H173.787L181.346 201.039H181.662L189.221 182.547H194.846V208H190.451V190.492H190.205L183.139 207.93H179.869L172.803 190.422H172.592V208H168.162V182.547ZM216.713 191.125C216.186 188.066 213.725 186.309 210.631 186.309C206.447 186.309 203.529 189.508 203.529 195.273C203.529 201.109 206.482 204.238 210.631 204.238C213.654 204.238 216.115 202.551 216.713 199.562H221.318C220.615 204.449 216.607 208.352 210.561 208.352C203.846 208.352 198.924 203.465 198.924 195.273C198.924 187.047 203.916 182.195 210.561 182.195C216.186 182.195 220.545 185.465 221.318 191.125H216.713ZM249.689 188.348V191.441H227.682V180.508H231.549V188.348H249.689ZM252.959 195.133V198.227H223.92V195.133H252.959ZM249.9 207.227V210.391H227.4V201.039H231.303V207.227H249.9ZM264.666 208V204.695L273.666 196.012C276.232 193.445 277.568 191.934 277.568 189.789C277.568 187.434 275.705 185.922 273.209 185.922C270.572 185.922 268.885 187.574 268.92 190.141H264.561C264.525 185.324 268.146 182.195 273.244 182.195C278.447 182.195 281.963 185.289 281.963 189.578C281.963 192.461 280.557 194.781 275.564 199.492L271.029 203.992V204.168H282.35V208H264.666ZM311.846 179.348V211.129H307.908V179.348H311.846ZM302.354 182.723C302.354 192.18 298.697 200.23 287.553 205.504L285.514 202.375C293.828 198.42 297.695 193.041 298.381 185.816H287.131V182.723H302.354ZM345.42 197.84V200.934H332.764V211.129H328.896V200.934H316.381V197.84H345.42ZM323.764 180.613V184.516H337.967V180.613H341.904V194.535H319.896V180.613H323.764ZM323.764 191.371H337.967V187.609H323.764V191.371ZM374.178 179.348V211.164H370.311V194.008H364.334V190.844H370.311V179.348H374.178ZM363.842 182.09V185.289H352.908V190.984H362.576V194.078H352.908V200.617C357.742 200.6 361.363 200.441 365.459 199.773L365.846 202.938C361.205 203.641 357.162 203.816 351.467 203.852H348.971V182.09H363.842ZM399.209 186.977C399.174 192.812 402.232 198.648 407.4 200.863L405.08 203.992C401.424 202.305 398.734 198.93 397.275 194.781C395.816 199.264 393.092 202.92 389.225 204.73L386.834 201.461C392.143 199.176 395.236 193.094 395.236 186.977V181.914H399.209V186.977ZM413.623 179.348V211.164H409.686V179.348H413.623ZM429.689 184.867C429.689 188.77 432.221 192.637 437.213 194.289L435.244 197.312C431.693 196.135 429.162 193.744 427.791 190.773C426.367 194.025 423.73 196.609 420.021 197.875L417.947 194.852C423.08 193.164 425.752 189.051 425.752 184.867V184.48H419.037V181.352H436.299V184.48H429.689V184.867ZM443.365 179.348V187.293H447.795V190.562H443.365V198.508H439.463V179.348H443.365ZM443.365 199.984V211.129H439.463V203.113H422.201V199.984H443.365ZM474.303 179.348V192.004H479.189V195.238H474.303V211.129H470.436V179.348H474.303ZM467.975 184.234V187.363H449.236V184.234H456.76V179.805H460.662V184.234H467.975ZM458.729 189.438C463.299 189.438 466.709 192.531 466.709 196.926C466.709 201.32 463.299 204.379 458.729 204.379C454.088 204.379 450.678 201.32 450.713 196.926C450.678 192.531 454.088 189.438 458.729 189.438ZM458.729 192.637C456.232 192.637 454.439 194.324 454.439 196.926C454.439 199.527 456.232 201.18 458.729 201.145C461.154 201.18 462.947 199.527 462.982 196.926C462.947 194.324 461.154 192.637 458.729 192.637ZM489.209 181.668C492.092 181.668 494.465 183.268 495.889 186.062H503.307V179.348H507.174V211.164H503.307V199.141H496.17C494.799 202.305 492.285 204.133 489.209 204.133C484.428 204.133 481.053 199.809 481.053 192.883C481.053 186.027 484.428 181.668 489.209 181.668ZM489.209 185.184C486.572 185.184 484.779 188.031 484.814 192.883C484.779 197.77 486.572 200.617 489.209 200.617C491.846 200.617 493.604 197.77 493.639 192.883C493.604 188.031 491.846 185.184 489.209 185.184ZM496.979 189.262C497.207 190.369 497.33 191.582 497.33 192.883C497.33 193.99 497.242 195.01 497.084 195.977H503.307V189.262H496.979ZM546.795 179.383V203.57H542.893V197.312H538.182V194.184H542.893V190.633H538.182V187.469H542.893V179.383H546.795ZM538.006 182.898V186.027H520.252V182.898H527.354V179.348H531.256V182.898H538.006ZM529.252 187.328C533.576 187.328 536.67 189.859 536.705 193.516C536.67 197.172 533.576 199.703 529.252 199.703C524.963 199.703 521.869 197.172 521.904 193.516C521.869 189.859 524.963 187.328 529.252 187.328ZM529.252 190.387C527.072 190.422 525.525 191.582 525.561 193.516C525.525 195.52 527.072 196.68 529.252 196.68C531.432 196.68 533.014 195.52 533.014 193.516C533.014 191.582 531.432 190.422 529.252 190.387ZM547.498 207.332V210.496H525.842V201.496H529.814V207.332H547.498ZM578.857 179.348V211.129H575.131V195.027H571.861V209.582H568.17V179.91H571.861V191.793H575.131V179.348H578.857ZM561.174 187.469C561.174 193.129 563.072 198.332 567.783 200.758L565.498 203.746C562.475 202.129 560.488 199.334 559.381 195.871C558.291 199.826 556.305 203.008 553.158 204.871L550.768 201.883C555.479 199.211 557.377 193.656 557.377 187.469V185.957H551.717V182.828H566.377V185.957H561.174V187.469ZM607.756 179.348V192.039H612.15V195.273H607.756V211.129H603.818V179.348H607.756ZM591.936 182.688C591.9 191.02 590.74 198.051 585.01 204.238L581.951 202.023C586.434 197.277 587.893 192.25 588.209 185.887H583.217V182.688H591.936ZM600.725 182.688C600.689 191.23 599.811 199.387 594.08 206.277L590.951 204.133C595.486 198.736 596.752 192.777 597.033 185.887H592.99V182.688H600.725ZM625.51 188.383C625.51 193.586 628.568 199.07 633.701 201.215L631.557 204.309C627.795 202.691 625.053 199.352 623.611 195.309C622.135 199.668 619.357 203.324 615.631 205.082L613.381 202.023C618.408 199.703 621.537 193.797 621.537 188.383V185.711H614.541V182.477H632.471V185.711H625.51V188.383ZM639.959 179.348V211.129H636.021V179.348H639.959ZM678.244 179.348V187.398H682.674V190.668H678.244V198.508H674.342V179.348H678.244ZM678.244 200.02V210.742H657.713V200.02H678.244ZM661.58 203.113V207.578H674.377V203.113H661.58ZM672.057 182.406V185.535H653.213V182.406H660.701V179.137H664.604V182.406H672.057ZM662.635 186.695C667.24 186.695 670.369 189.016 670.404 192.391C670.369 195.801 667.24 198.086 662.635 198.086C657.994 198.086 654.83 195.801 654.83 192.391C654.83 189.016 657.994 186.695 662.635 186.695ZM662.635 189.648C660.209 189.648 658.627 190.668 658.627 192.391C658.627 194.148 660.209 195.168 662.635 195.168C665.061 195.168 666.678 194.148 666.678 192.391C666.678 190.668 665.061 189.648 662.635 189.648ZM692.131 183.074C692.096 190.562 691.252 197.805 687.033 204.062L683.975 202.41C687.49 197.471 688.51 192.32 688.756 186.238H684.889V183.074H692.131ZM699.232 183.074C699.215 185.799 699.162 188.629 698.881 191.441H702.08V180.121H705.771V209.617H702.08V194.605H698.459C697.756 198.543 696.473 202.375 694.135 205.82L691.146 204.133C694.961 198.666 695.699 192.549 695.857 186.238H693.08V183.074H699.232ZM711.924 179.348V211.129H708.162V179.348H711.924ZM740.295 179.348V192.004H745.182V195.238H740.295V211.129H736.428V179.348H740.295ZM733.967 184.234V187.363H715.229V184.234H722.752V179.805H726.654V184.234H733.967ZM724.721 189.438C729.291 189.438 732.701 192.531 732.701 196.926C732.701 201.32 729.291 204.379 724.721 204.379C720.08 204.379 716.67 201.32 716.705 196.926C716.67 192.531 720.08 189.438 724.721 189.438ZM724.721 192.637C722.225 192.637 720.432 194.324 720.432 196.926C720.432 199.527 722.225 201.18 724.721 201.145C727.146 201.18 728.939 199.527 728.975 196.926C728.939 194.324 727.146 192.637 724.721 192.637ZM772.463 182.266V185.324C772.428 189.262 772.428 193.691 771.197 200.336L767.26 199.914C768.49 193.727 768.49 189.209 768.525 185.395H749.541V182.266H772.463ZM775.486 203.816V207.016H746.518V203.816H757.205V192.777H761.072V203.816H775.486ZM797.459 200.02C797.459 202.656 798.672 205.434 801.396 207.156C804.156 205.311 805.439 202.428 805.475 200.02V198.719H809.307V200.02C809.271 203.359 811.24 206.453 815.424 207.789L813.525 210.637C810.432 209.6 808.375 207.578 807.268 205.047C806.248 207.543 804.367 209.775 801.502 210.918C798.479 209.828 796.58 207.684 795.596 205.152C794.453 207.596 792.432 209.582 789.479 210.637L787.545 207.789C791.658 206.348 793.627 203.113 793.662 200.02V198.719H797.459V200.02ZM812.646 179.383V197.383H808.709V179.383H812.646ZM795.314 181.07C800.201 181.07 803.857 184.164 803.857 188.629C803.857 193.059 800.201 196.152 795.314 196.152C790.393 196.152 786.736 193.059 786.736 188.629C786.736 184.164 790.393 181.07 795.314 181.07ZM795.314 184.375C792.537 184.375 790.533 186.027 790.568 188.629C790.533 191.23 792.537 192.918 795.314 192.918C798.057 192.918 800.025 191.23 800.025 188.629C800.025 186.027 798.057 184.375 795.314 184.375ZM824.635 198.402V201.426H838.627V198.402H842.529V210.742H820.768V198.402H824.635ZM824.635 207.648H838.627V204.414H824.635V207.648ZM846.256 193.41V196.609H817.287V193.41H846.256ZM833.775 180.895C833.775 184.305 838.135 187.891 844.709 188.664L843.338 191.758C838.012 191.037 833.811 188.682 831.771 185.465C829.715 188.699 825.496 191.037 820.205 191.758L818.764 188.664C825.408 187.855 829.732 184.41 829.768 180.895V179.699H833.775V180.895ZM874.908 179.348V211.129H871.041V179.348H874.908ZM854.096 182.441V199.809C858.561 199.738 863.307 199.334 868.193 198.367L868.686 201.637C863.096 202.797 857.893 203.148 852.971 203.148H850.229V182.441H854.096ZM904.404 179.348V191.406H909.291V194.605H904.404V211.164H900.502V179.348H904.404ZM895.686 182.371V185.535H884.717V200.125C889.656 200.125 893.559 199.879 897.936 199.105L898.393 202.41C893.471 203.254 889.182 203.395 883.451 203.395H880.814V182.371H895.686Z" fill="#E7E7E7"/>
</g>
<defs>
<filter id="filter0_di_643_1723" x="0.482422" y="117.102" width="916.809" height="102.062" filterUnits="userSpaceOnUse" color-interpolation-filters="sRGB">
<feFlood flood-opacity="0" result="BackgroundImageFix"/>
<feColorMatrix in="SourceAlpha" type="matrix" values="0 0 0 0 0 0 0 0 0 0 0 0 0 0 0 0 0 0 127 0" result="hardAlpha"/>
<feOffset/>
<feGaussianBlur stdDeviation="4"/>
<feComposite in2="hardAlpha" operator="out"/>
<feColorMatrix type="matrix" values="0 0 0 0 1 0 0 0 0 1 0 0 0 0 1 0 0 0 0.15 0"/>
<feBlend mode="normal" in2="BackgroundImageFix" result="effect1_dropShadow_643_1723"/>
<feBlend mode="normal" in="SourceGraphic" in2="effect1_dropShadow_643_1723" result="shape"/>
<feColorMatrix in="SourceAlpha" type="matrix" values="0 0 0 0 0 0 0 0 0 0 0 0 0 0 0 0 0 0 127 0" result="hardAlpha"/>
<feOffset dx="1" dy="1"/>
<feGaussianBlur stdDeviation="1"/>
<feComposite in2="hardAlpha" operator="arithmetic" k2="-1" k3="1"/>
<feColorMatrix type="matrix" values="0 0 0 0 0 0 0 0 0 0 0 0 0 0 0 0 0 0 0.35 0"/>
<feBlend mode="normal" in2="shape" result="effect2_innerShadow_643_1723"/>
</filter>
</defs>
</svg>
