<svg width="917" height="222" viewBox="0 0 917 222" fill="none" xmlns="http://www.w3.org/2000/svg">
<path d="M361.387 23.5781H371.406V50.9414C371.406 60.4336 364.199 66.5859 353.535 66.5859C342.812 66.5859 335.664 60.4336 335.664 50.9414V23.5781H345.625V50.1211C345.625 54.6328 348.848 57.8555 353.535 57.8555C358.223 57.8555 361.387 54.6328 361.387 50.1211V23.5781ZM377.852 23.5781H390.215L401.172 50.2969H401.641L412.598 23.5781H424.961V66H415.234V39.6328H414.883L404.57 65.7656H398.242L387.93 39.5156H387.578V66H377.852V23.5781ZM459.59 38.8711C459.004 34.5352 455.898 31.7812 451.152 31.7812C444.883 31.7812 441.074 36.5273 441.074 44.7891C441.074 53.3438 445 57.7969 451.094 57.7969C455.664 57.7969 458.828 55.3359 459.59 51.1758L469.668 51.2344C468.848 58.793 462.402 66.5859 450.918 66.5859C439.434 66.5859 430.879 58.7344 430.879 44.7891C430.879 30.7852 439.609 22.9922 450.918 22.9922C461.113 22.9922 468.613 28.7344 469.668 38.8711H459.59ZM516.484 17.8945V33.0117H523.516V40.043H516.484V57.5039H508.047V17.8945H516.484ZM518.359 64.0078V70.7461H481.328V54.2812H489.941V64.0078H518.359ZM500.254 21.0586V38.4609H483.906V43.207C492.49 43.1777 498.232 42.7676 504.59 41.625L505.469 48.3633C498.145 49.7695 491.289 49.9453 480.098 49.9453H475.469V32.1328H491.992V27.7969H475.41V21.0586H500.254ZM535.176 52.2305C535.176 45.1406 536.992 42.9727 540.332 40.8633C542.91 39.2227 544.902 37.582 544.902 35.0039C544.902 32.4258 542.852 30.7852 540.332 30.7852C537.871 30.7852 535.586 32.543 535.527 35.4727H526.211C526.328 26.8594 532.715 22.9922 540.391 22.9922C548.887 22.9922 555.039 27.0938 555.039 34.5352C555.039 39.457 552.402 42.5039 548.477 44.8477C545.312 46.7227 543.789 48.4805 543.789 52.2305V53.0508H535.176V52.2305ZM539.629 66.5859C536.699 66.5859 534.297 64.2422 534.355 61.2539C534.297 58.3828 536.699 56.0391 539.629 56.0391C542.441 56.0391 544.902 58.3828 544.961 61.2539C544.902 64.2422 542.441 66.5859 539.629 66.5859Z" fill="white"/>
<g filter="url(#filter0_di_643_1723)">
<path d="M197.088 125.102V157.375H192.307V141.414H189.705V155.828H185.1V125.594H189.705V137.406H192.307V125.102H197.088ZM181.936 128.793V132.836H175.01V146.02C177.787 145.984 180.406 145.826 183.342 145.316L183.693 149.395C179.721 150.168 176.24 150.273 172.232 150.273H169.912V128.793H181.936ZM219.307 127.809V131.781H200.182V127.809H207.213V124.961H212.275V127.809H219.307ZM209.744 132.59C214.455 132.59 217.76 135.051 217.76 138.566C217.76 142.152 214.455 144.578 209.744 144.578C205.068 144.578 201.658 142.152 201.693 138.566C201.658 135.051 205.068 132.59 209.744 132.59ZM209.744 136.387C207.881 136.387 206.615 137.09 206.615 138.566C206.615 140.078 207.881 140.746 209.744 140.746C211.643 140.746 212.943 140.078 212.943 138.566C212.943 137.09 211.643 136.387 209.744 136.387ZM225.916 125.102V133.293H230.1V137.406H225.916V145.352H220.854V125.102H225.916ZM225.916 146.582V157.375H220.854V150.625H204.014V146.582H225.916ZM241.877 130.656C241.842 134.031 243.389 137.318 247.467 139.023V125.699H252.143V132.766H254.322V125.137H259.139V144.824H254.322V136.844H252.143V143.805H247.467V139.551L245.076 143.031C242.439 142.012 240.629 140.236 239.486 138.004C238.326 140.676 236.375 142.891 233.439 144.086L230.732 140.184C235.338 138.145 236.92 134.242 236.92 130.656V127.07H241.877V130.656ZM247.994 145.141C254.85 145.141 259.279 147.461 259.314 151.258C259.279 155.055 254.85 157.41 247.994 157.375C241.139 157.41 236.709 155.055 236.744 151.258C236.709 147.461 241.139 145.141 247.994 145.141ZM247.994 148.938C244.021 148.902 241.771 149.676 241.807 151.258C241.771 152.84 244.021 153.578 247.994 153.578C251.967 153.578 254.182 152.84 254.217 151.258C254.182 149.676 251.967 148.902 247.994 148.938ZM277.561 128.547V154H271.584V128.547H277.561ZM280.549 133.434V128.547H301.959V133.434H294.225V154H288.283V133.434H280.549ZM339.225 125.137V148.656H334.197V141.344H327.096C325.549 142.908 323.369 143.84 320.943 143.84C316.021 143.84 312.26 140.254 312.295 135.438C312.26 130.551 316.021 126.965 320.943 126.965C323.387 126.965 325.566 127.914 327.131 129.496H334.197V125.137H339.225ZM339.963 152.805V156.848H317.604V146.301H322.666V152.805H339.963ZM320.943 131.465C318.658 131.465 317.076 132.871 317.076 135.438C317.076 137.969 318.658 139.375 320.943 139.375C323.053 139.375 324.705 137.969 324.705 135.438C324.705 132.871 323.053 131.465 320.943 131.465ZM329.311 133.504C329.434 134.119 329.521 134.77 329.521 135.438C329.521 136.088 329.451 136.703 329.311 137.301H334.197V133.504H329.311ZM368.721 125.102V132.73H372.904V136.914H368.721V144.051H363.658V125.102H368.721ZM352.408 145.211V147.391H363.658V145.211H368.721V157.023H347.381V145.211H352.408ZM352.408 153.086H363.658V151.223H352.408V153.086ZM362.111 127.773V131.746H342.986V127.773H350.018V124.926H355.08V127.773H362.111ZM352.549 132.449C357.26 132.449 360.564 134.734 360.564 138.18C360.564 141.625 357.26 143.91 352.549 143.875C347.803 143.91 344.463 141.625 344.498 138.18C344.463 134.734 347.803 132.449 352.549 132.449ZM352.549 136.141C350.686 136.141 349.42 136.844 349.42 138.18C349.42 139.586 350.686 140.219 352.549 140.219C354.447 140.219 355.748 139.586 355.748 138.18C355.748 136.844 354.447 136.141 352.549 136.141ZM394.385 131.957C394.385 137.793 396.424 143.594 401.768 146.195L398.744 150.203C395.369 148.568 393.154 145.598 391.889 141.941C390.482 145.896 388.109 149.078 384.506 150.836L381.412 146.723C387.107 144.156 389.322 138.004 389.322 131.957V127.492H394.385V131.957ZM407.779 125.102V137.336H412.35V141.59H407.779V157.375H402.717V125.102H407.779ZM440.404 125.102V157.445H435.307V125.102H440.404ZM422.791 127.316C427.678 127.316 431.334 131.781 431.369 138.848C431.334 146.02 427.678 150.484 422.791 150.484C417.799 150.484 414.143 146.02 414.143 138.848C414.143 131.781 417.799 127.316 422.791 127.316ZM422.791 131.887C420.506 131.887 419.029 134.242 419.064 138.848C419.029 143.523 420.506 145.879 422.791 145.879C425.006 145.879 426.482 143.523 426.482 138.848C426.482 134.242 425.006 131.887 422.791 131.887ZM470.779 139.867V143.875H447.787V127.703H470.568V131.781H452.779V139.867H470.779ZM473.908 149.43V153.613H444.412V149.43H473.908ZM513.072 149.57V153.754H483.576V149.57H513.072ZM510.717 127.809V131.852H506.357V141.098H510.541V145.105H485.932V141.098H490.045V131.852H485.791V127.809H510.717ZM495.107 141.098H501.365V131.852H495.107V141.098ZM544.186 149.781V153.895H514.689V149.781H526.889V145.281H517.994V134.172H535.889V131.148H517.959V127.105H540.881V138.109H523.057V141.203H541.619V145.281H531.881V149.781H544.186ZM567.143 125.734V144.613H562.361V137.055H559.232V132.977H562.361V125.734H567.143ZM556.174 132.062C556.174 135.438 557.65 138.637 561.834 140.219L559.303 144.086C556.648 143.102 554.873 141.344 553.783 139.164C552.605 141.59 550.689 143.576 547.807 144.684L545.17 140.711C549.635 139.059 551.252 135.543 551.252 132.027V131.359H546.4V127.352H560.709V131.359H556.174V132.062ZM573.611 125.102V144.754H568.795V125.102H573.611ZM573.611 145.844V157.375H568.549V149.852H551.146V145.844H573.611ZM603.283 141.52V145.492H580.291V127.352H603.037V131.43H585.459V134.383H602.264V138.32H585.459V141.52H603.283ZM606.412 149.676V153.754H576.916V149.676H606.412ZM645.576 140.113V144.086H616.08V140.113H628.35V137.688H619.596V126.508H642.096V130.445H624.658V133.715H642.236V137.688H633.342V140.113H645.576ZM630.74 145.457C637.771 145.457 641.99 147.602 641.99 151.469C641.99 155.266 637.771 157.445 630.74 157.445C623.674 157.445 619.385 155.266 619.385 151.469C619.385 147.602 623.674 145.457 630.74 145.457ZM630.74 149.289C626.486 149.289 624.518 149.992 624.553 151.469C624.518 152.98 626.486 153.578 630.74 153.578C634.889 153.578 636.928 152.98 636.928 151.469C636.928 149.992 634.889 149.289 630.74 149.289ZM655.912 127.316C660.869 127.316 664.49 131.781 664.525 138.848C664.49 146.02 660.869 150.484 655.912 150.484C650.885 150.484 647.229 146.02 647.264 138.848C647.229 131.781 650.885 127.316 655.912 127.316ZM655.912 131.887C653.662 131.887 652.15 134.242 652.186 138.848C652.15 143.523 653.662 145.879 655.912 145.879C658.197 145.879 659.639 143.523 659.674 138.848C659.639 134.242 658.197 131.887 655.912 131.887ZM672.787 125.102V137.055H677.357V141.238H672.787V157.375H667.725V125.102H672.787ZM705.447 125.102V157.445H700.42V125.102H705.447ZM695.393 127.738V140.465H685.232V145.809C689.996 145.773 693.969 145.527 698.381 144.789L698.803 148.867C693.705 149.781 688.959 149.992 682.947 149.992H679.994V136.492H690.225V131.781H679.994V127.738H695.393ZM738.916 149.781V153.895H709.42V149.781H721.619V145.281H712.725V134.172H730.619V131.148H712.689V127.105H735.611V138.109H717.787V141.203H736.35V145.281H726.611V149.781H738.916ZM37.7598 194.113V198.086H8.26367V194.113H20.5332V191.688H11.7793V180.508H34.2793V184.445H16.8418V187.715H34.4199V191.688H25.5254V194.113H37.7598ZM22.9238 199.457C29.9551 199.457 34.1738 201.602 34.1738 205.469C34.1738 209.266 29.9551 211.445 22.9238 211.445C15.8574 211.445 11.5684 209.266 11.5684 205.469C11.5684 201.602 15.8574 199.457 22.9238 199.457ZM22.9238 203.289C18.6699 203.289 16.7012 203.992 16.7363 205.469C16.7012 206.98 18.6699 207.578 22.9238 207.578C27.0723 207.578 29.1113 206.98 29.1113 205.469C29.1113 203.992 27.0723 203.289 22.9238 203.289ZM55.7246 181.211V185.289H46.1621V193.691C51.084 193.674 53.9141 193.445 56.9902 192.812L57.4473 196.785C53.791 197.699 50.4512 197.77 43.7012 197.77H41.0996V181.211H55.7246ZM66.6934 199.949V211.375H61.666V203.922H44.4043V199.949H66.6934ZM66.6934 179.102V198.648H61.666V191.125H54.2832V187.047H61.666V179.102H66.6934ZM79.4551 181.316C82.3203 181.316 84.7285 182.846 86.2402 185.535H92.8496V179.102H97.8418V211.445H92.8496V199.492H86.5918C85.1504 202.674 82.5664 204.484 79.4551 204.484C74.498 204.484 70.9473 200.02 70.9824 192.848C70.9473 185.781 74.498 181.316 79.4551 181.316ZM79.4551 185.887C77.3105 185.887 75.7988 188.242 75.834 192.848C75.7988 197.523 77.3105 199.879 79.4551 199.879C81.6699 199.879 83.0762 197.523 83.0762 192.848C83.0762 188.242 81.6699 185.887 79.4551 185.887ZM87.6465 189.613C87.8047 190.615 87.8926 191.705 87.8926 192.848C87.8926 193.779 87.8398 194.658 87.7168 195.484H92.8496V189.613H87.6465ZM129.588 179.102V211.375H124.807V195.414H122.205V209.828H117.6V179.594H122.205V191.406H124.807V179.102H129.588ZM114.436 182.793V186.836H107.51V200.02C110.287 199.984 112.906 199.826 115.842 199.316L116.193 203.395C112.221 204.168 108.74 204.273 104.732 204.273H102.412V182.793H114.436ZM157.291 182.547H163.303V198.965C163.303 204.66 158.979 208.352 152.58 208.352C146.146 208.352 141.857 204.66 141.857 198.965V182.547H147.834V198.473C147.834 201.18 149.768 203.113 152.58 203.113C155.393 203.113 157.291 201.18 157.291 198.473V182.547ZM167.17 182.547H174.588L181.162 198.578H181.443L188.018 182.547H195.436V208H189.6V192.18H189.389L183.201 207.859H179.404L173.217 192.109H173.006V208H167.17V182.547ZM216.213 191.723C215.861 189.121 213.998 187.469 211.15 187.469C207.389 187.469 205.104 190.316 205.104 195.273C205.104 200.406 207.459 203.078 211.115 203.078C213.857 203.078 215.756 201.602 216.213 199.105L222.26 199.141C221.768 203.676 217.9 208.352 211.01 208.352C204.119 208.352 198.986 203.641 198.986 195.273C198.986 186.871 204.225 182.195 211.01 182.195C217.127 182.195 221.627 185.641 222.26 191.723H216.213ZM250.877 187.609V191.547H228.201V180.262H233.229V187.609H250.877ZM254.111 194.676V198.648H224.615V194.676H254.111ZM251.088 206.629V210.672H227.885V201.074H232.947V206.629H251.088ZM264.834 208V203.676L274.115 195.52C276.26 193.551 277.49 192.25 277.525 190.316C277.49 188.207 275.943 186.871 273.799 186.871C271.619 186.871 270.178 188.242 270.178 190.562H264.482C264.482 185.43 268.244 182.195 273.834 182.195C279.564 182.195 283.326 185.289 283.326 189.859C283.326 192.777 281.885 195.203 276.365 200.02L273.166 202.973V203.148H283.643V208H264.834ZM313.314 179.102V211.375H308.182V179.102H313.314ZM303.611 182.441C303.611 192.391 300.447 200.477 288.705 205.996L286.068 201.988C294.277 198.104 297.723 193.34 298.443 186.379H287.896V182.441H303.611ZM346.643 197.523V201.496H334.303V211.375H329.275V201.496H317.146V197.523H346.643ZM325.479 180.332V183.812H338.17V180.332H343.232V194.676H320.486V180.332H325.479ZM325.479 190.633H338.17V187.75H325.479V190.633ZM375.646 179.102V211.445H370.654V194.289H365.346V190.246H370.654V179.102H375.646ZM364.854 181.738V185.816H354.834V190.703H363.764V194.641H354.834V200.16C358.895 200.143 362.375 199.984 366.189 199.422L366.682 203.43C361.971 204.133 357.646 204.273 352.373 204.309H349.771V181.738H364.854ZM400.361 185.957C400.326 191.898 402.611 197.84 408.342 200.195L405.354 204.273C401.732 202.656 399.307 199.65 397.865 195.871C396.441 200.037 393.91 203.359 389.99 205.117L386.967 200.898C392.873 198.473 395.193 192.285 395.229 185.957V181.492H400.361V185.957ZM414.564 179.102V211.445H409.467V179.102H414.564ZM436.959 180.859V184.902H430.807C430.982 188.383 433.021 191.986 438.154 193.621L435.588 197.523C432.072 196.398 429.682 194.201 428.275 191.477C426.834 194.465 424.355 196.855 420.646 198.051L417.975 194.148C423.248 192.479 425.41 188.629 425.639 184.902H419.311V180.859H436.959ZM444.271 179.102V186.73H448.455V190.914H444.271V198.578H439.209V179.102H444.271ZM444.271 199.844V211.375H439.209V203.852H422.369V199.844H444.271ZM475.279 179.102V191.512H479.85V195.695H475.279V211.375H470.287V179.102H475.279ZM468.389 183.812V187.82H449.51V183.812H456.506V179.629H461.568V183.812H468.389ZM459.037 189.367C463.748 189.367 467.334 192.602 467.369 197.137C467.334 201.707 463.748 204.906 459.037 204.906C454.186 204.906 450.635 201.707 450.67 197.137C450.635 192.602 454.186 189.367 459.037 189.367ZM459.037 193.445C456.963 193.48 455.486 194.816 455.521 197.137C455.486 199.527 456.963 200.793 459.037 200.793C461.041 200.793 462.482 199.527 462.518 197.137C462.482 194.816 461.041 193.48 459.037 193.445ZM489.764 181.316C492.629 181.316 495.037 182.846 496.549 185.535H503.158V179.102H508.15V211.445H503.158V199.492H496.9C495.459 202.674 492.875 204.484 489.764 204.484C484.807 204.484 481.256 200.02 481.291 192.848C481.256 185.781 484.807 181.316 489.764 181.316ZM489.764 185.887C487.619 185.887 486.107 188.242 486.143 192.848C486.107 197.523 487.619 199.879 489.764 199.879C491.979 199.879 493.385 197.523 493.385 192.848C493.385 188.242 491.979 185.887 489.764 185.887ZM497.955 189.613C498.113 190.615 498.201 191.705 498.201 192.848C498.201 193.779 498.148 194.658 498.025 195.484H503.158V189.613H497.955ZM547.279 179.137V203.711H542.252V197.91H538.279V193.902H542.252V191.02H538.279V186.977H542.252V179.137H547.279ZM537.857 182.371V186.309H520.068V182.371H526.678V179.066H531.74V182.371H537.857ZM529.139 187.223C533.604 187.223 536.873 189.93 536.908 193.621C536.873 197.383 533.604 200.02 529.139 200.02C524.779 200.02 521.51 197.383 521.51 193.621C521.51 189.93 524.779 187.223 529.139 187.223ZM529.139 191.16C527.451 191.16 526.221 192.004 526.221 193.621C526.221 195.344 527.451 196.188 529.139 196.188C530.861 196.188 532.127 195.344 532.127 193.621C532.127 192.004 530.861 191.16 529.139 191.16ZM547.947 206.805V210.848H525.623V201.637H530.756V206.805H547.947ZM579.377 179.102V211.375H574.525V195.414H572.311V209.934H567.529V200.934L565.104 204.168C562.221 202.656 560.375 200.16 559.232 197.066C558.195 200.652 556.367 203.588 553.396 205.363L550.303 201.461C555.26 198.648 556.631 192.848 556.631 186.836V186.309H551.498V182.301H566.193V186.309H561.588V186.836C561.588 192.215 562.906 197.436 567.529 200.09V179.523H572.311V191.336H574.525V179.102H579.377ZM608.135 179.102V191.547H612.178V195.695H608.135V211.375H603.037V179.102H608.135ZM591.752 182.371C591.752 191.582 591.084 198.297 585.318 204.695L581.381 201.848C585.617 197.172 586.689 192.848 586.936 186.484H582.928V182.371H591.752ZM600.717 182.371C600.717 192.039 600.014 199.738 594.424 206.734L590.451 203.922C594.617 198.631 595.707 193.621 595.971 186.484H592.877V182.371H600.717ZM626.1 187.539C626.1 192.672 628.35 198.262 633.975 200.547L631.268 204.52C627.523 202.973 625.045 199.949 623.604 196.258C622.197 200.301 619.648 203.641 615.869 205.328L612.986 201.355C618.576 198.895 620.932 192.988 620.932 187.539V186.273H614.322V182.16H632.568V186.273H626.1V187.539ZM640.408 179.102V211.375H635.311V179.102H640.408ZM678.166 179.102V186.871H682.35V191.055H678.166V198.578H673.104V179.102H678.166ZM678.166 199.844V211.023H656.861V199.844H678.166ZM661.854 203.816V206.98H673.174V203.816H661.854ZM671.557 181.879V185.852H652.432V181.879H659.463V178.961H664.525V181.879H671.557ZM661.994 186.625C666.705 186.625 670.01 189.016 670.01 192.426C670.01 195.906 666.705 198.262 661.994 198.297C657.248 198.262 653.908 195.906 653.943 192.426C653.908 189.016 657.248 186.625 661.994 186.625ZM661.994 190.422C660.131 190.387 658.865 191.055 658.865 192.426C658.865 193.867 660.131 194.57 661.994 194.57C663.893 194.57 665.193 193.867 665.193 192.426C665.193 191.055 663.893 190.387 661.994 190.422ZM691.49 182.758C691.455 191.195 690.717 198.297 686.814 204.73L682.912 202.691C686.006 197.682 686.92 193.059 687.131 186.766H684.072V182.758H691.49ZM698.732 182.758C698.732 185.605 698.68 188.365 698.486 191.02H700.736V179.805H705.482V210.004H700.736V195.062H697.994C697.344 199 696.166 202.709 694.057 206.172L690.225 204.062C693.582 198.631 694.285 193.41 694.443 186.766H692.404V182.758H698.732ZM711.951 179.102V211.375H707.1V179.102H711.951ZM740.287 179.102V191.512H744.857V195.695H740.287V211.375H735.295V179.102H740.287ZM733.396 183.812V187.82H714.518V183.812H721.514V179.629H726.576V183.812H733.396ZM724.045 189.367C728.756 189.367 732.342 192.602 732.377 197.137C732.342 201.707 728.756 204.906 724.045 204.906C719.193 204.906 715.643 201.707 715.678 197.137C715.643 192.602 719.193 189.367 724.045 189.367ZM724.045 193.445C721.971 193.48 720.494 194.816 720.529 197.137C720.494 199.527 721.971 200.793 724.045 200.793C726.049 200.793 727.49 199.527 727.525 197.137C727.49 194.816 726.049 193.48 724.045 193.445ZM772.596 181.738V184.762C772.596 188.805 772.596 193.41 771.295 200.371L766.162 199.844C767.393 193.938 767.48 189.455 767.533 185.746H748.83V181.738H772.596ZM775.232 203.535V207.613H745.807V203.535H756.037V192.566H761.064V203.535H775.232ZM796.959 199.492C796.959 202.006 797.926 204.59 800.404 206.348C802.9 204.502 803.92 201.865 803.955 199.492V198.613H808.947V199.492C808.912 202.902 810.494 205.926 814.818 207.227L812.393 210.883C809.352 209.898 807.4 208.018 806.275 205.574C805.203 208.018 803.357 210.074 800.51 211.164C797.521 210.109 795.658 208.105 794.604 205.68C793.443 208.018 791.527 209.881 788.627 210.883L786.131 207.227C790.42 205.785 792.002 202.656 792.037 199.492V198.613H796.959V199.492ZM812.076 179.137V197.312H807.014V179.137H812.076ZM794.322 180.684C799.385 180.719 803.252 183.953 803.252 188.523C803.252 193.023 799.385 196.293 794.322 196.293C789.26 196.293 785.357 193.023 785.393 188.523C785.357 183.953 789.26 180.719 794.322 180.684ZM794.322 184.938C791.967 184.938 790.314 186.203 790.314 188.523C790.314 190.773 791.967 192.109 794.322 192.109C796.607 192.109 798.225 190.773 798.225 188.523C798.225 186.203 796.607 184.938 794.322 184.938ZM824.416 198.438V200.863H836.791V198.438H841.818V211.023H819.424V198.438H824.416ZM824.416 207.086H836.791V204.66H824.416V207.086ZM845.51 192.988V197.031H816.084V192.988H845.51ZM833.416 180.367C833.416 183.355 836.404 187.047 844.104 187.891L842.346 191.863C836.668 191.16 832.836 188.945 830.814 185.957C828.723 188.945 824.873 191.16 819.283 191.863L817.455 187.891C825.119 187.012 828.178 183.426 828.178 180.367V179.418H833.416V180.367ZM874.479 179.102V211.375H869.451V179.102H874.479ZM853.842 182.16V199.211C858.025 199.123 862.561 198.719 867.061 197.84L867.693 202.023C862.068 203.184 856.654 203.535 851.732 203.5H848.814V182.16H853.842ZM903.904 179.102V190.844H908.475V194.957H903.904V211.445H898.842V179.102H903.904ZM894.693 182.055V186.133H884.604V199.527C888.945 199.492 892.689 199.229 896.768 198.543L897.295 202.762C892.338 203.605 887.873 203.711 882.318 203.711H879.541V182.055H894.693Z" fill="white"/>
</g>
<defs>
<filter id="filter0_di_643_1723" x="0.263672" y="116.926" width="916.211" height="102.52" filterUnits="userSpaceOnUse" color-interpolation-filters="sRGB">
<feFlood flood-opacity="0" result="BackgroundImageFix"/>
<feColorMatrix in="SourceAlpha" type="matrix" values="0 0 0 0 0 0 0 0 0 0 0 0 0 0 0 0 0 0 127 0" result="hardAlpha"/>
<feOffset/>
<feGaussianBlur stdDeviation="4"/>
<feComposite in2="hardAlpha" operator="out"/>
<feColorMatrix type="matrix" values="0 0 0 0 1 0 0 0 0 1 0 0 0 0 1 0 0 0 0.15 0"/>
<feBlend mode="normal" in2="BackgroundImageFix" result="effect1_dropShadow_643_1723"/>
<feBlend mode="normal" in="SourceGraphic" in2="effect1_dropShadow_643_1723" result="shape"/>
<feColorMatrix in="SourceAlpha" type="matrix" values="0 0 0 0 0 0 0 0 0 0 0 0 0 0 0 0 0 0 127 0" result="hardAlpha"/>
<feOffset dx="1" dy="1"/>
<feGaussianBlur stdDeviation="1"/>
<feComposite in2="hardAlpha" operator="arithmetic" k2="-1" k3="1"/>
<feColorMatrix type="matrix" values="0 0 0 0 0 0 0 0 0 0 0 0 0 0 0 0 0 0 0.35 0"/>
<feBlend mode="normal" in2="shape" result="effect2_innerShadow_643_1723"/>
</filter>
</defs>
</svg>
