<svg width="1440" height="596" viewBox="0 0 1440 596" fill="none" xmlns="http://www.w3.org/2000/svg">
<g filter="url(#filter0_df_484_1035)">
<path d="M170.255 344V252.086H208.214C228.78 252.086 239.444 261.48 239.444 275.445C239.444 285.982 232.335 293.219 222.306 295.25V296.139C233.351 296.646 242.999 305.025 242.999 318.355C242.999 333.209 231.446 344 211.134 344H170.255ZM206.056 326.48C215.958 326.48 220.401 322.545 220.401 315.943C220.401 308.707 215.069 304.137 206.437 304.137H191.837V326.48H206.056ZM204.659 290.045C212.022 290.045 217.354 286.109 217.354 279.508C217.354 273.287 212.657 269.352 204.913 269.352H191.837V290.045H204.659ZM248.463 344V252.086H286.041C306.735 252.086 319.43 263.766 319.43 282.555C319.43 295.187 313.654 304.264 303.561 308.834L322.731 344H298.99L282.106 312.389H270.045V344H248.463ZM270.045 295.123H281.471C291.627 295.123 297.086 291.188 297.086 282.555C297.086 273.922 291.627 269.605 281.471 269.605H270.045V295.123ZM326.417 344V252.086H390.021V269.732H347.999V289.156H386.72V306.803H347.999V326.354H390.148V344H326.417ZM417.702 344H394.342L425.573 252.086H454.264L485.368 344H462.135L455.915 324.322H423.922L417.702 344ZM429.128 307.818H450.71L440.299 274.811H439.538L429.128 307.818ZM489.943 344V252.086H511.525V291.314H512.795L543.644 252.086H569.289L536.408 293.092L569.797 344H543.898L520.666 307.564L511.525 318.863V344H489.943ZM593.42 269.732V252.086H670.735V269.732H642.805V344H621.35V269.732H593.42ZM676.326 344V252.086H697.908V289.156H734.851V252.086H756.433V344H734.851V306.803H697.908V344H676.326ZM765.198 344V252.086H828.801V269.732H786.78V289.156H825.501V306.803H786.78V326.354H828.928V344H765.198ZM861.312 344V252.086H898.89C919.583 252.086 932.278 263.766 932.278 282.555C932.278 295.187 926.502 304.264 916.409 308.834L935.579 344H911.839L894.954 312.389H882.894V344H861.312ZM882.894 295.123H894.319C904.476 295.123 909.935 291.188 909.935 282.555C909.935 273.922 904.476 269.605 894.319 269.605H882.894V295.123ZM994.998 252.086H1016.71V311.373C1016.71 331.939 1001.09 345.27 977.987 345.27C954.754 345.27 939.266 331.939 939.266 311.373V252.086H960.848V309.596C960.848 319.371 967.83 326.354 977.987 326.354C988.143 326.354 994.998 319.371 994.998 309.596V252.086ZM1025.47 344V252.086H1047.05V326.354H1085.65V344H1025.47ZM1091.75 344V252.086H1155.35V269.732H1113.33V289.156H1152.05V306.803H1113.33V326.354H1155.48V344H1091.75ZM1213.63 279.381C1213.12 272.652 1208.17 268.717 1199.28 268.717C1190.52 268.717 1186.08 272.525 1185.95 277.73C1185.82 283.443 1191.41 286.236 1199.66 288.014L1207.66 289.918C1225.31 293.854 1235.59 302.613 1235.72 317.34C1235.59 334.732 1222.13 345.27 1199.28 345.27C1176.43 345.27 1161.58 334.859 1161.2 313.785H1182.02C1182.52 322.672 1189.12 327.242 1199.03 327.242C1208.17 327.242 1213.63 323.18 1213.75 317.34C1213.63 312.008 1208.93 309.215 1198.77 306.93L1189.12 304.645C1173.26 300.963 1163.61 293.092 1163.61 279.254C1163.48 262.242 1178.59 250.816 1199.41 250.816C1220.61 250.816 1234.19 262.369 1234.45 279.381H1213.63ZM1266.7 252.086L1264.79 315.943H1246.64L1244.74 252.086H1266.7ZM1255.65 345.27C1249.31 345.27 1244.1 340.191 1244.23 333.717C1244.1 327.496 1249.31 322.418 1255.65 322.418C1261.75 322.418 1267.08 327.496 1267.21 333.717C1267.08 340.191 1261.75 345.27 1255.65 345.27Z" fill="url(#paint0_linear_484_1035)"/>
</g>
<path d="M998.352 332.531C998.273 343.312 1003.27 355.891 1015.54 361.438L1009.29 370.266C1001.4 366.75 996.008 359.836 992.883 351.672C989.719 360.734 984.094 368.312 975.852 372.141L969.367 363.234C981.789 357.453 986.945 344.25 986.945 332.531V329.719H972.336V320.578H1012.26V329.719H998.352V332.531ZM1028.04 313.781V340.656H1038.2V349.953H1028.04V385.5H1016.79V313.781H1028.04ZM1100.54 313.859V366.125H1089.29V313.859H1100.54ZM1102.34 375.344V384.328H1051.95V360.969H1063.35V375.344H1102.34ZM1068.43 324.641C1068.35 333.703 1072.65 342.766 1084.84 346.516L1079.13 355.344C1071.12 352.766 1065.77 347.766 1062.65 341.359C1059.41 348.273 1053.86 353.82 1045.54 356.516L1039.68 347.688C1052.18 343.625 1056.71 333.859 1056.71 324.641V317.766H1068.43V324.641ZM1166.55 313.781V328.859H1175.85V338.078H1166.55V353.625H1155.3V313.781H1166.55ZM1146.32 317.844C1146.32 337.141 1134.52 349.953 1112.88 355.578L1108.43 346.672C1123.98 342.922 1132.3 335.5 1133.98 326.75H1112.02V317.844H1146.32ZM1166.55 356.203V384.641H1119.21V356.203H1166.55ZM1130.38 365.188V375.891H1155.46V365.188H1130.38Z" fill="white"/>
<path d="M692.156 318.312V327.297H686.688V345.109C688.797 344.992 690.867 344.797 692.859 344.562L693.25 352.766C679.969 355.031 664.578 355.344 653.328 355.344L652.156 346.281L659.266 346.203V327.297H653.953V318.312H692.156ZM712.938 313.781V357.453H701.766V347.531H694.031V338.625H701.766V333.859H694.031V325.031H701.766V313.781H712.938ZM688.172 358.469C703.797 358.469 713.094 363.391 713.172 372.141C713.094 380.5 703.797 385.578 688.172 385.5C672.703 385.578 663.406 380.5 663.406 372.141C663.406 363.391 672.703 358.469 688.172 358.469ZM688.172 366.984C679.109 366.984 674.578 368.547 674.578 372.141C674.578 375.5 679.109 376.984 688.172 377.062C697.312 376.984 701.922 375.5 702 372.141C701.922 368.547 697.312 366.984 688.172 366.984ZM670.125 345.969L675.984 345.812V327.297H670.125V345.969ZM786.922 346.125V355.266H721.375V346.125H786.922ZM779.5 332.844V341.75H729.188V315.422H779.188V324.406H740.438V332.844H779.5ZM753.953 358.938C769.578 358.938 778.953 363.703 778.953 372.141C778.953 380.734 769.578 385.578 753.953 385.5C738.25 385.578 728.719 380.734 728.719 372.141C728.719 363.703 738.25 358.938 753.953 358.938ZM753.953 367.453C744.5 367.453 740.125 369.016 740.203 372.141C740.125 375.578 744.5 376.984 753.953 377.062C763.172 376.984 767.703 375.578 767.703 372.141C767.703 369.016 763.172 367.453 753.953 367.453Z" fill="white"/>
<path d="M391.828 345.422V354.25H371.438V368.469H398.781V377.609H333.234V368.469H360.344V354.25H340.734V318.625H391.359V327.531H351.984V345.422H391.828ZM463.078 313.859V366.125H451.906V341.047H441.125V331.984H451.906V313.859H463.078ZM464.719 375.344V384.328H415.031V361.594H426.281V375.344H464.719ZM430.109 327.609C430.109 335.656 434.562 344.484 446.203 348.234L440.734 357.141C432.883 354.641 427.609 349.68 424.484 343.547C421.359 350.344 415.852 355.812 407.531 358.469L401.75 349.406C414.016 345.734 418.625 336.359 418.625 327.531V327.375H404.875V318.391H443.781V327.375H430.109V327.609Z" fill="white"/>
<defs>
<filter id="filter0_df_484_1035" x="-79.7451" y="0.816406" width="1596.95" height="594.453" filterUnits="userSpaceOnUse" color-interpolation-filters="sRGB">
<feFlood flood-opacity="0" result="BackgroundImageFix"/>
<feColorMatrix in="SourceAlpha" type="matrix" values="0 0 0 0 0 0 0 0 0 0 0 0 0 0 0 0 0 0 127 0" result="hardAlpha"/>
<feOffset/>
<feGaussianBlur stdDeviation="125"/>
<feComposite in2="hardAlpha" operator="out"/>
<feColorMatrix type="matrix" values="0 0 0 0 1 0 0 0 0 1 0 0 0 0 1 0 0 0 0.1 0"/>
<feBlend mode="normal" in2="BackgroundImageFix" result="effect1_dropShadow_484_1035"/>
<feBlend mode="normal" in="SourceGraphic" in2="effect1_dropShadow_484_1035" result="shape"/>
<feGaussianBlur stdDeviation="5" result="effect2_foregroundBlur_484_1035"/>
</filter>
<linearGradient id="paint0_linear_484_1035" x1="163" y1="297.5" x2="1277" y2="297.5" gradientUnits="userSpaceOnUse">
<stop stop-color="#282828"/>
<stop offset="0.5" stop-color="#888888"/>
<stop offset="1" stop-color="#282828"/>
</linearGradient>
</defs>
</svg>
