<svg width="1598" height="596" viewBox="0 0 1598 596" fill="none" xmlns="http://www.w3.org/2000/svg">
<g filter="url(#filter0_df_484_665)">
<path d="M250.255 344V252.086H288.214C308.78 252.086 319.444 261.48 319.444 275.445C319.444 285.982 312.335 293.219 302.306 295.25V296.139C313.351 296.646 322.999 305.025 322.999 318.355C322.999 333.209 311.446 344 291.134 344H250.255ZM286.056 326.48C295.958 326.48 300.401 322.545 300.401 315.943C300.401 308.707 295.069 304.137 286.437 304.137H271.837V326.48H286.056ZM284.659 290.045C292.022 290.045 297.354 286.109 297.354 279.508C297.354 273.287 292.657 269.352 284.913 269.352H271.837V290.045H284.659ZM328.463 344V252.086H366.041C386.735 252.086 399.43 263.766 399.43 282.555C399.43 295.187 393.654 304.264 383.561 308.834L402.731 344H378.99L362.106 312.389H350.045V344H328.463ZM350.045 295.123H361.471C371.627 295.123 377.086 291.188 377.086 282.555C377.086 273.922 371.627 269.605 361.471 269.605H350.045V295.123ZM406.417 344V252.086H470.021V269.732H427.999V289.156H466.72V306.803H427.999V326.354H470.148V344H406.417ZM497.702 344H474.342L505.573 252.086H534.264L565.368 344H542.135L535.915 324.322H503.922L497.702 344ZM509.128 307.818H530.71L520.299 274.811H519.538L509.128 307.818ZM569.943 344V252.086H591.525V291.314H592.795L623.644 252.086H649.289L616.408 293.092L649.797 344H623.898L600.666 307.564L591.525 318.863V344H569.943ZM673.42 269.732V252.086H750.735V269.732H722.805V344H701.35V269.732H673.42ZM756.326 344V252.086H777.908V289.156H814.851V252.086H836.433V344H814.851V306.803H777.908V344H756.326ZM845.198 344V252.086H908.801V269.732H866.78V289.156H905.501V306.803H866.78V326.354H908.928V344H845.198ZM941.312 344V252.086H978.89C999.583 252.086 1012.28 263.766 1012.28 282.555C1012.28 295.187 1006.5 304.264 996.409 308.834L1015.58 344H991.839L974.954 312.389H962.894V344H941.312ZM962.894 295.123H974.319C984.476 295.123 989.935 291.188 989.935 282.555C989.935 273.922 984.476 269.605 974.319 269.605H962.894V295.123ZM1075 252.086H1096.71V311.373C1096.71 331.939 1081.09 345.27 1057.99 345.27C1034.75 345.27 1019.27 331.939 1019.27 311.373V252.086H1040.85V309.596C1040.85 319.371 1047.83 326.354 1057.99 326.354C1068.14 326.354 1075 319.371 1075 309.596V252.086ZM1105.47 344V252.086H1127.05V326.354H1165.65V344H1105.47ZM1171.75 344V252.086H1235.35V269.732H1193.33V289.156H1232.05V306.803H1193.33V326.354H1235.48V344H1171.75ZM1293.63 279.381C1293.12 272.652 1288.17 268.717 1279.28 268.717C1270.52 268.717 1266.08 272.525 1265.95 277.73C1265.82 283.443 1271.41 286.236 1279.66 288.014L1287.66 289.918C1305.31 293.854 1315.59 302.613 1315.72 317.34C1315.59 334.732 1302.13 345.27 1279.28 345.27C1256.43 345.27 1241.58 334.859 1241.2 313.785H1262.02C1262.52 322.672 1269.12 327.242 1279.03 327.242C1288.17 327.242 1293.63 323.18 1293.75 317.34C1293.63 312.008 1288.93 309.215 1278.77 306.93L1269.12 304.645C1253.26 300.963 1243.61 293.092 1243.61 279.254C1243.48 262.242 1258.59 250.816 1279.41 250.816C1300.61 250.816 1314.19 262.369 1314.45 279.381H1293.63ZM1346.7 252.086L1344.79 315.943H1326.64L1324.74 252.086H1346.7ZM1335.65 345.27C1329.31 345.27 1324.1 340.191 1324.23 333.717C1324.1 327.496 1329.31 322.418 1335.65 322.418C1341.75 322.418 1347.08 327.496 1347.21 333.717C1347.08 340.191 1341.75 345.27 1335.65 345.27Z" fill="url(#paint0_linear_484_665)"/>
</g>
<defs>
<filter id="filter0_df_484_665" x="0.254883" y="0.816406" width="1596.95" height="594.453" filterUnits="userSpaceOnUse" color-interpolation-filters="sRGB">
<feFlood flood-opacity="0" result="BackgroundImageFix"/>
<feColorMatrix in="SourceAlpha" type="matrix" values="0 0 0 0 0 0 0 0 0 0 0 0 0 0 0 0 0 0 127 0" result="hardAlpha"/>
<feOffset/>
<feGaussianBlur stdDeviation="125"/>
<feComposite in2="hardAlpha" operator="out"/>
<feColorMatrix type="matrix" values="0 0 0 0 1 0 0 0 0 1 0 0 0 0 1 0 0 0 0.1 0"/>
<feBlend mode="normal" in2="BackgroundImageFix" result="effect1_dropShadow_484_665"/>
<feBlend mode="normal" in="SourceGraphic" in2="effect1_dropShadow_484_665" result="shape"/>
<feGaussianBlur stdDeviation="5" result="effect2_foregroundBlur_484_665"/>
</filter>
<linearGradient id="paint0_linear_484_665" x1="243" y1="297.5" x2="1357" y2="297.5" gradientUnits="userSpaceOnUse">
<stop stop-color="#282828"/>
<stop offset="0.5" stop-color="#888888"/>
<stop offset="1" stop-color="#282828"/>
</linearGradient>
</defs>
</svg>
