<svg width="776" height="222" viewBox="0 0 776 222" fill="none" xmlns="http://www.w3.org/2000/svg">
<path d="M290.387 23.5781H300.406V50.9414C300.406 60.4336 293.199 66.5859 282.535 66.5859C271.812 66.5859 264.664 60.4336 264.664 50.9414V23.5781H274.625V50.1211C274.625 54.6328 277.848 57.8555 282.535 57.8555C287.223 57.8555 290.387 54.6328 290.387 50.1211V23.5781ZM306.852 23.5781H319.215L330.172 50.2969H330.641L341.598 23.5781H353.961V66H344.234V39.6328H343.883L333.57 65.7656H327.242L316.93 39.5156H316.578V66H306.852V23.5781ZM388.59 38.8711C388.004 34.5352 384.898 31.7812 380.152 31.7812C373.883 31.7812 370.074 36.5273 370.074 44.7891C370.074 53.3438 374 57.7969 380.094 57.7969C384.664 57.7969 387.828 55.3359 388.59 51.1758L398.668 51.2344C397.848 58.793 391.402 66.5859 379.918 66.5859C368.434 66.5859 359.879 58.7344 359.879 44.7891C359.879 30.7852 368.609 22.9922 379.918 22.9922C390.113 22.9922 397.613 28.7344 398.668 38.8711H388.59ZM445.484 17.8945V33.0117H452.516V40.043H445.484V57.5039H437.047V17.8945H445.484ZM447.359 64.0078V70.7461H410.328V54.2812H418.941V64.0078H447.359ZM429.254 21.0586V38.4609H412.906V43.207C421.49 43.1777 427.232 42.7676 433.59 41.625L434.469 48.3633C427.145 49.7695 420.289 49.9453 409.098 49.9453H404.469V32.1328H420.992V27.7969H404.41V21.0586H429.254ZM464.176 52.2305C464.176 45.1406 465.992 42.9727 469.332 40.8633C471.91 39.2227 473.902 37.582 473.902 35.0039C473.902 32.4258 471.852 30.7852 469.332 30.7852C466.871 30.7852 464.586 32.543 464.527 35.4727H455.211C455.328 26.8594 461.715 22.9922 469.391 22.9922C477.887 22.9922 484.039 27.0938 484.039 34.5352C484.039 39.457 481.402 42.5039 477.477 44.8477C474.312 46.7227 472.789 48.4805 472.789 52.2305V53.0508H464.176V52.2305ZM468.629 66.5859C465.699 66.5859 463.297 64.2422 463.355 61.2539C463.297 58.3828 465.699 56.0391 468.629 56.0391C471.441 56.0391 473.902 58.3828 473.961 61.2539C473.902 64.2422 471.441 66.5859 468.629 66.5859Z" fill="white"/>
<g filter="url(#filter0_di_643_1723)">
<path d="M154.801 128.547V154H150.23V128.547H154.801ZM158.422 132.379V128.547H178.707V132.379H170.867V154H166.297V132.379H158.422ZM216.148 125.383V148.691H212.246V140.816H204.688C203.158 142.521 200.908 143.559 198.359 143.559C193.578 143.559 189.957 140.113 189.957 135.438C189.957 130.691 193.578 127.281 198.359 127.281C200.891 127.281 203.123 128.301 204.652 129.988H212.246V125.383H216.148ZM216.957 153.332V156.496H195.301V146.301H199.203V153.332H216.957ZM198.359 130.762C195.617 130.762 193.684 132.59 193.684 135.438C193.684 138.25 195.617 140.078 198.359 140.078C200.961 140.078 202.93 138.25 202.965 135.438C202.93 132.59 200.961 130.762 198.359 130.762ZM206.375 133.152C206.568 133.873 206.691 134.629 206.691 135.438C206.691 136.211 206.586 136.949 206.41 137.652H212.246V133.152H206.375ZM245.715 125.348V133.188H250.145V136.422H245.715V143.91H241.812V125.348H245.715ZM229.051 145.176V147.918H241.812V145.176H245.715V156.742H225.184V145.176H229.051ZM229.051 153.648H241.812V150.941H229.051V153.648ZM239.527 128.301V131.43H220.684V128.301H228.172V125.102H232.074V128.301H239.527ZM230.105 132.52C234.711 132.52 237.84 134.734 237.875 138.109C237.84 141.484 234.711 143.699 230.105 143.699C225.465 143.699 222.301 141.484 222.301 138.109C222.301 134.734 225.465 132.52 230.105 132.52ZM230.105 135.402C227.68 135.402 226.098 136.422 226.098 138.109C226.098 139.832 227.68 140.816 230.105 140.816C232.531 140.816 234.148 139.832 234.148 138.109C234.148 136.422 232.531 135.402 230.105 135.402ZM271.66 132.977C271.625 138.637 274.473 144.402 279.395 146.758L277.004 149.887C273.559 148.146 271.08 144.789 269.727 140.746C268.338 145.07 265.736 148.656 262.098 150.484L259.707 147.355C264.805 144.93 267.723 138.848 267.758 132.977V127.914H271.66V132.977ZM285.195 125.348V137.793H290.082V141.133H285.195V157.129H281.293V125.348H285.195ZM317.855 125.348V157.164H313.918V125.348H317.855ZM300.734 127.668C305.516 127.668 308.996 132.027 309.031 138.883C308.996 145.809 305.516 150.133 300.734 150.133C295.918 150.133 292.438 145.809 292.438 138.883C292.438 132.027 295.918 127.668 300.734 127.668ZM300.734 131.184C298.027 131.184 296.199 134.031 296.199 138.883C296.199 143.77 298.027 146.617 300.734 146.617C303.406 146.617 305.234 143.77 305.234 138.883C305.234 134.031 303.406 131.184 300.734 131.184ZM348.336 140.254V143.383H326.047V128.125H348.09V131.289H329.914V140.254H348.336ZM351.57 149.852V153.086H322.531V149.852H351.57ZM391.227 150.027V153.297H362.188V150.027H391.227ZM388.695 128.301V131.43H384.055V141.555H388.59V144.648H364.684V141.555H369.148V131.43H364.578V128.301H388.695ZM373.051 141.555H380.188V131.43H373.051V141.555ZM422.34 150.203V153.438H393.301V150.203H405.816V145.035H396.746V134.629H415.027V130.691H396.676V127.527H418.895V137.723H400.648V141.836H419.633V145.035H409.684V150.203H422.34ZM445.332 126.016V144.508H441.605V136.492H437.633V133.328H441.605V126.016H445.332ZM434.223 132.168C434.223 135.578 436.121 139.023 440.164 140.641L438.195 143.629C435.383 142.539 433.484 140.5 432.395 138.039C431.234 140.799 429.213 143.066 426.207 144.297L424.168 141.238C428.422 139.551 430.426 135.789 430.426 132.168V130.902H425.082V127.773H439.25V130.902H434.223V132.168ZM451.59 125.348V144.719H447.863V125.348H451.59ZM451.59 145.984V157.129H447.688V149.113H429.828V145.984H451.59ZM481.367 142.012V145.105H459.078V127.844H481.086V131.008H463.051V134.84H480.348V137.898H463.051V142.012H481.367ZM484.566 150.062V153.262H455.527V150.062H484.566ZM524.188 140.57V143.699H495.184V140.57H507.77V137.547H498.734V126.789H520.672V129.848H502.637V134.453H520.848V137.547H511.602V140.57H524.188ZM509.633 145.527C516.488 145.527 520.602 147.602 520.637 151.328C520.602 155.02 516.488 157.129 509.633 157.129C502.707 157.129 498.559 155.02 498.559 151.328C498.559 147.602 502.707 145.527 509.633 145.527ZM509.633 148.516C504.992 148.516 502.496 149.5 502.531 151.328C502.496 153.156 504.992 154.105 509.633 154.105C514.168 154.105 516.699 153.156 516.734 151.328C516.699 149.5 514.168 148.516 509.633 148.516ZM534.84 127.668C539.621 127.668 543.066 132.027 543.102 138.883C543.066 145.809 539.621 150.133 534.84 150.133C530.023 150.133 526.543 145.809 526.578 138.883C526.543 132.027 530.023 127.668 534.84 127.668ZM534.84 131.184C532.168 131.184 530.34 134.031 530.34 138.883C530.34 143.77 532.168 146.617 534.84 146.617C537.547 146.617 539.34 143.77 539.34 138.883C539.34 134.031 537.547 131.184 534.84 131.184ZM551.188 125.348V137.547H556.074V140.852H551.188V157.129H547.285V125.348H551.188ZM583.883 125.348V157.164H580.016V125.348H583.883ZM574.109 128.125V140.043H563.176V146.441C568.186 146.406 572.51 146.16 577.449 145.316L577.801 148.516C572.387 149.465 567.641 149.641 561.945 149.641H559.168V136.949H570.137V131.289H559.133V128.125H574.109ZM617.562 150.203V153.438H588.523V150.203H601.039V145.035H591.969V134.629H610.25V130.691H591.898V127.527H614.117V137.723H595.871V141.836H614.855V145.035H604.906V150.203H617.562ZM37.1855 194.57V197.699H8.18164V194.57H20.7676V191.547H11.7324V180.789H33.6699V183.848H15.6348V188.453H33.8457V191.547H24.5996V194.57H37.1855ZM22.6309 199.527C29.4863 199.527 33.5996 201.602 33.6348 205.328C33.5996 209.02 29.4863 211.129 22.6309 211.129C15.7051 211.129 11.5566 209.02 11.5566 205.328C11.5566 201.602 15.7051 199.527 22.6309 199.527ZM22.6309 202.516C17.9902 202.516 15.4941 203.5 15.5293 205.328C15.4941 207.156 17.9902 208.105 22.6309 208.105C27.166 208.105 29.6973 207.156 29.7324 205.328C29.6973 203.5 27.166 202.516 22.6309 202.516ZM55.502 181.492V184.691H44.9199V194.113C50.334 194.096 53.4805 193.902 57.0137 193.164L57.4004 196.293C53.4277 197.172 49.9824 197.277 43.4785 197.277H41.0176V181.492H55.502ZM65.9082 199.914V211.129H62.0059V203.043H44.252V199.914H65.9082ZM65.9082 179.348V198.473H62.0059V190.562H53.8496V187.398H62.0059V179.348H65.9082ZM79.0918 181.668C81.9746 181.668 84.3477 183.268 85.7715 186.062H93.1895V179.348H97.0566V211.164H93.1895V199.141H86.0527C84.6816 202.305 82.168 204.133 79.0918 204.133C74.3105 204.133 70.9355 199.809 70.9355 192.883C70.9355 186.027 74.3105 181.668 79.0918 181.668ZM79.0918 185.184C76.4551 185.184 74.6621 188.031 74.6973 192.883C74.6621 197.77 76.4551 200.617 79.0918 200.617C81.7285 200.617 83.4863 197.77 83.5215 192.883C83.4863 188.031 81.7285 185.184 79.0918 185.184ZM86.8613 189.262C87.0898 190.369 87.2129 191.582 87.2129 192.883C87.2129 193.99 87.125 195.01 86.9668 195.977H93.1895V189.262H86.8613ZM128.873 179.348V211.129H125.146V194.922H121.561V209.512H117.975V179.945H121.561V191.793H125.146V179.348H128.873ZM114.389 183.109V186.273H106.443V200.406C109.906 200.371 112.754 200.195 115.971 199.598L116.252 202.797C112.42 203.57 109.08 203.676 104.65 203.711H102.506V183.109H114.389ZM158.545 182.547H163.15V199.176C163.15 204.625 159.002 208.387 152.814 208.387C146.592 208.387 142.479 204.625 142.479 199.176V182.547H147.049V198.789C147.049 201.988 149.299 204.309 152.814 204.309C156.33 204.309 158.545 201.988 158.545 198.789V182.547ZM167.861 182.547H173.486L181.045 201.039H181.361L188.92 182.547H194.545V208H190.15V190.492H189.904L182.838 207.93H179.568L172.502 190.422H172.291V208H167.861V182.547ZM216.412 191.125C215.885 188.066 213.424 186.309 210.33 186.309C206.146 186.309 203.229 189.508 203.229 195.273C203.229 201.109 206.182 204.238 210.33 204.238C213.354 204.238 215.814 202.551 216.412 199.562H221.018C220.314 204.449 216.307 208.352 210.26 208.352C203.545 208.352 198.623 203.465 198.623 195.273C198.623 187.047 203.615 182.195 210.26 182.195C215.885 182.195 220.244 185.465 221.018 191.125H216.412ZM249.389 188.348V191.441H227.381V180.508H231.248V188.348H249.389ZM252.658 195.133V198.227H223.619V195.133H252.658ZM249.6 207.227V210.391H227.1V201.039H231.002V207.227H249.6ZM264.365 208V204.695L273.365 196.012C275.932 193.445 277.268 191.934 277.268 189.789C277.268 187.434 275.404 185.922 272.908 185.922C270.271 185.922 268.584 187.574 268.619 190.141H264.26C264.225 185.324 267.846 182.195 272.943 182.195C278.146 182.195 281.662 185.289 281.662 189.578C281.662 192.461 280.256 194.781 275.264 199.492L270.729 203.992V204.168H282.049V208H264.365ZM311.545 179.348V211.129H307.607V179.348H311.545ZM302.053 182.723C302.053 192.18 298.396 200.23 287.252 205.504L285.213 202.375C293.527 198.42 297.395 193.041 298.08 185.816H286.83V182.723H302.053ZM345.119 197.84V200.934H332.463V211.129H328.596V200.934H316.08V197.84H345.119ZM323.463 180.613V184.516H337.666V180.613H341.604V194.535H319.596V180.613H323.463ZM323.463 191.371H337.666V187.609H323.463V191.371ZM373.877 179.348V211.164H370.01V194.008H364.033V190.844H370.01V179.348H373.877ZM363.541 182.09V185.289H352.607V190.984H362.275V194.078H352.607V200.617C357.441 200.6 361.062 200.441 365.158 199.773L365.545 202.938C360.904 203.641 356.861 203.816 351.166 203.852H348.67V182.09H363.541ZM397.186 208.352C391.525 208.352 387.518 205.328 387.518 201.18C387.518 197.945 389.908 195.309 392.967 194.816V194.676C390.295 194.113 388.467 191.793 388.467 189.016C388.467 185.078 392.158 182.195 397.186 182.195C402.178 182.195 405.869 185.078 405.869 189.016C405.869 191.793 404.006 194.113 401.369 194.676V194.816C404.428 195.309 406.854 197.945 406.854 201.18C406.854 205.328 402.811 208.352 397.186 208.352ZM397.186 204.73C400.174 204.73 402.143 203.113 402.143 200.758C402.143 198.367 400.033 196.609 397.186 196.609C394.303 196.609 392.193 198.367 392.229 200.758C392.193 203.113 394.162 204.73 397.186 204.73ZM397.186 193.199C399.646 193.199 401.404 191.652 401.404 189.438C401.404 187.293 399.682 185.781 397.186 185.781C394.654 185.781 392.932 187.258 392.932 189.438C392.932 191.652 394.689 193.199 397.186 193.199ZM436.139 179.348V211.129H432.201V179.348H436.139ZM426.646 182.723C426.646 192.18 422.99 200.23 411.846 205.504L409.807 202.375C418.121 198.42 421.988 193.041 422.674 185.816H411.424V182.723H426.646ZM466.057 179.348V192.039H470.451V195.273H466.057V211.129H462.119V179.348H466.057ZM450.236 182.688C450.201 191.02 449.041 198.051 443.311 204.238L440.252 202.023C444.734 197.277 446.193 192.25 446.51 185.887H441.518V182.688H450.236ZM459.025 182.688C458.99 191.23 458.111 199.387 452.381 206.277L449.252 204.133C453.787 198.736 455.053 192.777 455.334 185.887H451.291V182.688H459.025ZM483.811 188.383C483.811 193.586 486.869 199.07 492.002 201.215L489.857 204.309C486.096 202.691 483.354 199.352 481.912 195.309C480.436 199.668 477.658 203.324 473.932 205.082L471.682 202.023C476.709 199.703 479.838 193.797 479.838 188.383V185.711H472.842V182.477H490.771V185.711H483.811V188.383ZM498.26 179.348V211.129H494.322V179.348H498.26ZM536.545 179.348V187.398H540.975V190.668H536.545V198.508H532.643V179.348H536.545ZM536.545 200.02V210.742H516.014V200.02H536.545ZM519.881 203.113V207.578H532.678V203.113H519.881ZM530.357 182.406V185.535H511.514V182.406H519.002V179.137H522.904V182.406H530.357ZM520.936 186.695C525.541 186.695 528.67 189.016 528.705 192.391C528.67 195.801 525.541 198.086 520.936 198.086C516.295 198.086 513.131 195.801 513.131 192.391C513.131 189.016 516.295 186.695 520.936 186.695ZM520.936 189.648C518.51 189.648 516.928 190.668 516.928 192.391C516.928 194.148 518.51 195.168 520.936 195.168C523.361 195.168 524.979 194.148 524.979 192.391C524.979 190.668 523.361 189.648 520.936 189.648ZM550.432 183.074C550.396 190.562 549.553 197.805 545.334 204.062L542.275 202.41C545.791 197.471 546.811 192.32 547.057 186.238H543.189V183.074H550.432ZM557.533 183.074C557.516 185.799 557.463 188.629 557.182 191.441H560.381V180.121H564.072V209.617H560.381V194.605H556.76C556.057 198.543 554.773 202.375 552.436 205.82L549.447 204.133C553.262 198.666 554 192.549 554.158 186.238H551.381V183.074H557.533ZM570.225 179.348V211.129H566.463V179.348H570.225ZM598.596 179.348V192.004H603.482V195.238H598.596V211.129H594.729V179.348H598.596ZM592.268 184.234V187.363H573.529V184.234H581.053V179.805H584.955V184.234H592.268ZM583.021 189.438C587.592 189.438 591.002 192.531 591.002 196.926C591.002 201.32 587.592 204.379 583.021 204.379C578.381 204.379 574.971 201.32 575.006 196.926C574.971 192.531 578.381 189.438 583.021 189.438ZM583.021 192.637C580.525 192.637 578.732 194.324 578.732 196.926C578.732 199.527 580.525 201.18 583.021 201.145C585.447 201.18 587.24 199.527 587.275 196.926C587.24 194.324 585.447 192.637 583.021 192.637ZM630.764 182.266V185.324C630.729 189.262 630.729 193.691 629.498 200.336L625.561 199.914C626.791 193.727 626.791 189.209 626.826 185.395H607.842V182.266H630.764ZM633.787 203.816V207.016H604.818V203.816H615.506V192.777H619.373V203.816H633.787ZM655.76 200.02C655.76 202.656 656.973 205.434 659.697 207.156C662.457 205.311 663.74 202.428 663.775 200.02V198.719H667.607V200.02C667.572 203.359 669.541 206.453 673.725 207.789L671.826 210.637C668.732 209.6 666.676 207.578 665.568 205.047C664.549 207.543 662.668 209.775 659.803 210.918C656.779 209.828 654.881 207.684 653.896 205.152C652.754 207.596 650.732 209.582 647.779 210.637L645.846 207.789C649.959 206.348 651.928 203.113 651.963 200.02V198.719H655.76V200.02ZM670.947 179.383V197.383H667.01V179.383H670.947ZM653.615 181.07C658.502 181.07 662.158 184.164 662.158 188.629C662.158 193.059 658.502 196.152 653.615 196.152C648.693 196.152 645.037 193.059 645.037 188.629C645.037 184.164 648.693 181.07 653.615 181.07ZM653.615 184.375C650.838 184.375 648.834 186.027 648.869 188.629C648.834 191.23 650.838 192.918 653.615 192.918C656.357 192.918 658.326 191.23 658.326 188.629C658.326 186.027 656.357 184.375 653.615 184.375ZM682.936 198.402V201.426H696.928V198.402H700.83V210.742H679.068V198.402H682.936ZM682.936 207.648H696.928V204.414H682.936V207.648ZM704.557 193.41V196.609H675.588V193.41H704.557ZM692.076 180.895C692.076 184.305 696.436 187.891 703.01 188.664L701.639 191.758C696.312 191.037 692.111 188.682 690.072 185.465C688.016 188.699 683.797 191.037 678.506 191.758L677.064 188.664C683.709 187.855 688.033 184.41 688.068 180.895V179.699H692.076V180.895ZM733.209 179.348V211.129H729.342V179.348H733.209ZM712.396 182.441V199.809C716.861 199.738 721.607 199.334 726.494 198.367L726.986 201.637C721.396 202.797 716.193 203.148 711.271 203.148H708.529V182.441H712.396ZM762.705 179.348V191.406H767.592V194.605H762.705V211.164H758.803V179.348H762.705ZM753.986 182.371V185.535H743.018V200.125C747.957 200.125 751.859 199.879 756.236 199.105L756.693 202.41C751.771 203.254 747.482 203.395 741.752 203.395H739.115V182.371H753.986Z" fill="#E7E7E7"/>
</g>
<defs>
<filter id="filter0_di_643_1723" x="0.181641" y="117.102" width="775.41" height="102.062" filterUnits="userSpaceOnUse" color-interpolation-filters="sRGB">
<feFlood flood-opacity="0" result="BackgroundImageFix"/>
<feColorMatrix in="SourceAlpha" type="matrix" values="0 0 0 0 0 0 0 0 0 0 0 0 0 0 0 0 0 0 127 0" result="hardAlpha"/>
<feOffset/>
<feGaussianBlur stdDeviation="4"/>
<feComposite in2="hardAlpha" operator="out"/>
<feColorMatrix type="matrix" values="0 0 0 0 1 0 0 0 0 1 0 0 0 0 1 0 0 0 0.15 0"/>
<feBlend mode="normal" in2="BackgroundImageFix" result="effect1_dropShadow_643_1723"/>
<feBlend mode="normal" in="SourceGraphic" in2="effect1_dropShadow_643_1723" result="shape"/>
<feColorMatrix in="SourceAlpha" type="matrix" values="0 0 0 0 0 0 0 0 0 0 0 0 0 0 0 0 0 0 127 0" result="hardAlpha"/>
<feOffset dx="1" dy="1"/>
<feGaussianBlur stdDeviation="1"/>
<feComposite in2="hardAlpha" operator="arithmetic" k2="-1" k3="1"/>
<feColorMatrix type="matrix" values="0 0 0 0 0 0 0 0 0 0 0 0 0 0 0 0 0 0 0.35 0"/>
<feBlend mode="normal" in2="shape" result="effect2_innerShadow_643_1723"/>
</filter>
</defs>
</svg>
