<svg width="41" height="40" viewBox="0 0 41 40" fill="none" xmlns="http://www.w3.org/2000/svg">
<circle cx="20.2031" cy="20" r="20" fill="#585858"/>
<g clip-path="url(#clip0_690_288)">
<path d="M20.2031 11.8008C22.875 11.8008 23.1914 11.8125 24.2422 11.8594C25.2188 11.9023 25.7461 12.0664 26.0977 12.2031C26.5625 12.3828 26.8984 12.6016 27.2461 12.9492C27.5977 13.3008 27.8125 13.6328 27.9922 14.0977C28.1289 14.4492 28.293 14.9805 28.3359 15.9531C28.3828 17.0078 28.3945 17.3242 28.3945 19.9922C28.3945 22.6641 28.3828 22.9805 28.3359 24.0312C28.293 25.0078 28.1289 25.5352 27.9922 25.8867C27.8125 26.3516 27.5937 26.6875 27.2461 27.0352C26.8945 27.3867 26.5625 27.6016 26.0977 27.7812C25.7461 27.918 25.2148 28.082 24.2422 28.125C23.1875 28.1719 22.8711 28.1836 20.2031 28.1836C17.5312 28.1836 17.2148 28.1719 16.1641 28.125C15.1875 28.082 14.6602 27.918 14.3086 27.7812C13.8438 27.6016 13.5078 27.3828 13.1602 27.0352C12.8086 26.6836 12.5937 26.3516 12.4141 25.8867C12.2773 25.5352 12.1133 25.0039 12.0703 24.0312C12.0234 22.9766 12.0117 22.6602 12.0117 19.9922C12.0117 17.3203 12.0234 17.0039 12.0703 15.9531C12.1133 14.9766 12.2773 14.4492 12.4141 14.0977C12.5937 13.6328 12.8125 13.2969 13.1602 12.9492C13.5117 12.5977 13.8438 12.3828 14.3086 12.2031C14.6602 12.0664 15.1914 11.9023 16.1641 11.8594C17.2148 11.8125 17.5312 11.8008 20.2031 11.8008ZM20.2031 10C17.4883 10 17.1484 10.0117 16.082 10.0586C15.0195 10.1055 14.2891 10.2773 13.6562 10.5234C12.9961 10.7812 12.4375 11.1211 11.8828 11.6797C11.3242 12.2344 10.9844 12.793 10.7266 13.4492C10.4805 14.0859 10.3086 14.8125 10.2617 15.875C10.2148 16.9453 10.2031 17.2852 10.2031 20C10.2031 22.7148 10.2148 23.0547 10.2617 24.1211C10.3086 25.1836 10.4805 25.9141 10.7266 26.5469C10.9844 27.207 11.3242 27.7656 11.8828 28.3203C12.4375 28.875 12.9961 29.2187 13.6523 29.4727C14.2891 29.7187 15.0156 29.8906 16.0781 29.9375C17.1445 29.9844 17.4844 29.9961 20.1992 29.9961C22.9141 29.9961 23.2539 29.9844 24.3203 29.9375C25.3828 29.8906 26.1133 29.7187 26.7461 29.4727C27.4023 29.2187 27.9609 28.875 28.5156 28.3203C29.0703 27.7656 29.4141 27.207 29.668 26.5508C29.9141 25.9141 30.0859 25.1875 30.1328 24.125C30.1797 23.0586 30.1914 22.7187 30.1914 20.0039C30.1914 17.2891 30.1797 16.9492 30.1328 15.8828C30.0859 14.8203 29.9141 14.0898 29.668 13.457C29.4219 12.793 29.082 12.2344 28.5234 11.6797C27.9688 11.125 27.4102 10.7812 26.7539 10.5273C26.1172 10.2812 25.3906 10.1094 24.3281 10.0625C23.2578 10.0117 22.918 10 20.2031 10Z" fill="white"/>
<path d="M20.2031 14.8633C17.3672 14.8633 15.0664 17.1641 15.0664 20C15.0664 22.8359 17.3672 25.1367 20.2031 25.1367C23.0391 25.1367 25.3398 22.8359 25.3398 20C25.3398 17.1641 23.0391 14.8633 20.2031 14.8633ZM20.2031 23.332C18.3633 23.332 16.8711 21.8398 16.8711 20C16.8711 18.1602 18.3633 16.668 20.2031 16.668C22.043 16.668 23.5352 18.1602 23.5352 20C23.5352 21.8398 22.043 23.332 20.2031 23.332Z" fill="white"/>
<path d="M26.7422 14.6602C26.7422 15.3242 26.2031 15.8594 25.543 15.8594C24.8789 15.8594 24.3438 15.3203 24.3438 14.6602C24.3438 13.9961 24.8828 13.4609 25.543 13.4609C26.2031 13.4609 26.7422 14 26.7422 14.6602Z" fill="white"/>
</g>
<defs>
<clipPath id="clip0_690_288">
<rect width="20" height="20" fill="white" transform="translate(10.2031 10)"/>
</clipPath>
</defs>
</svg>
