<svg width="2749" height="552" viewBox="0 0 2749 552" fill="none" xmlns="http://www.w3.org/2000/svg">
<path d="M374.5 300.5L310 236C310 303.157 268.365 360.589 209.5 383.893" stroke="#D57A94" stroke-width="60" stroke-linecap="round" stroke-linejoin="round"/>
<path d="M375 300.5L439.5 236C439.5 303.157 481.135 360.589 540 383.893" stroke="#D57A94" stroke-width="60" stroke-linecap="round" stroke-linejoin="round"/>
<path d="M378.404 522C328.367 522 283.641 499.342 254 463.762" stroke="#BA224D" stroke-width="60" stroke-linecap="round"/>
<path d="M378 522C428.037 522 472.762 499.342 502.404 463.762" stroke="#BA224D" stroke-width="60" stroke-linecap="round"/>
<path d="M375 30C326.725 30 285.1 58.6603 266 100" stroke="#BA224D" stroke-width="60" stroke-linecap="round"/>
<path d="M378 30C426.275 30 467.9 58.6603 487 100" stroke="#BA224D" stroke-width="60" stroke-linecap="round"/>
<path d="M129 311C74.3238 311 30 266.676 30 212C30 186.644 39.5322 163.515 55.2085 146" stroke="#D57A94" stroke-width="60" stroke-linecap="round"/>
<path d="M129 311C183.676 311 228 266.676 228 212C228 186.644 218.468 163.515 202.792 146" stroke="#D57A94" stroke-width="60" stroke-linecap="round"/>
<path d="M522 212C522 157.324 566.324 113 621 113C646.356 113 669.485 122.532 687 138.208" stroke="#D57A94" stroke-width="60" stroke-linecap="round"/>
<path d="M522 212C522 266.676 566.324 311 621 311C646.356 311 669.485 301.468 687 285.792" stroke="#D57A94" stroke-width="60" stroke-linecap="round"/>
<path d="M941.922 397H857.254V156.609H942.918C1015.3 156.609 1059.63 201.6 1059.46 276.473C1059.63 351.678 1015.3 397 941.922 397ZM907.059 354.168H939.93C985.75 354.168 1009.66 330.428 1009.66 276.473C1009.66 223.016 985.75 199.441 940.262 199.441H907.059V354.168ZM1180.32 397H1095.65V156.609H1181.32C1253.7 156.609 1298.03 201.6 1297.86 276.473C1298.03 351.678 1253.7 397 1180.32 397ZM1145.46 354.168H1178.33C1224.15 354.168 1248.05 330.428 1248.05 276.473C1248.05 223.016 1224.15 199.441 1178.66 199.441H1145.46V354.168ZM1379.21 397L1310.48 156.609H1364.93L1405.44 324.617H1407.43L1451.59 156.609H1498.41L1542.57 324.949H1544.56L1585.07 156.609H1639.52L1570.79 397H1521.98L1476.16 238.289H1474.17L1428.02 397H1379.21ZM1813.84 156.609H1863.97V312.664C1863.97 365.291 1823.96 400.486 1764.36 400.32C1704.6 400.486 1665.09 365.291 1665.09 312.664V156.609H1714.89V308.68C1715.06 336.404 1734.65 356.326 1764.36 356.492C1794.41 356.326 1814 336.404 1813.84 308.68V156.609ZM2131.59 156.609H2181.73V312.664C2181.73 365.291 2141.72 400.486 2082.12 400.32C2022.35 400.486 1982.84 365.291 1982.84 312.664V156.609H2032.64V308.68C2032.81 336.404 2052.4 356.326 2082.12 356.492C2112.17 356.326 2131.76 336.404 2131.59 308.68V156.609ZM2222.23 156.609H2283.99L2350.73 319.637H2353.39L2420.12 156.609H2481.88V397H2433.41V239.617H2431.41L2368.66 396.004H2335.46L2272.7 238.953H2270.71V397H2222.23V156.609ZM2683.09 240.281C2679.11 213.719 2658.69 197.615 2630.63 197.449C2593.28 197.615 2568.54 226.17 2568.54 276.805C2568.54 328.602 2593.61 355.994 2630.3 356.16C2657.69 355.994 2678.28 341.053 2683.09 314.988L2733.56 315.32C2728.08 359.812 2690.73 400.32 2629.64 400.32C2565.39 400.32 2517.74 354.998 2517.74 276.805C2517.74 198.279 2566.22 153.289 2629.64 153.289C2685.09 153.289 2726.92 184.998 2733.56 240.281H2683.09Z" fill="#E3A6B7"/>
</svg>
